<svg width="871" height="863" viewBox="0 0 871 863" fill="none" xmlns="http://www.w3.org/2000/svg">
<g filter="url(#filter0_i_35_97)">
<path d="M385.79 100.364C387.137 100.46 392.427 101.449 394.721 101.718C391.991 102.411 380.942 100.032 385.79 100.364ZM622.379 38.7374C620.608 39.0801 618.824 39.418 617.026 39.751C622.146 39.6808 629.046 39.1049 633.869 39.0124C634.652 38.9994 632.68 39.8538 634.529 39.7612C636.374 39.666 635.95 38.7118 638.596 38.415C641.411 38.1281 655.503 37.612 660.066 37.0899C677.805 35.2067 695.478 32.1681 712.816 29.2886C694.92 33.2652 713.355 30.7371 718.115 29.4139C719.213 29.0591 718.789 27.5873 736.451 23.9217C747.392 21.44 738.213 26.6557 756.008 20.3115C741.435 22.557 755.474 18.9597 765.98 15.3864C767.708 14.8957 782.429 9.88986 788.023 7.13481C789.99 6.23001 792.558 3.99628 794.906 2.75608C796.415 1.95986 798.082 1.65319 800.152 0.416221C800.387 0.275543 800.616 0.136785 800.839 0L844.411 53.4729C833.447 65.2152 822.596 76.7266 811.404 88.3113C816.306 79.6865 805.463 93.1238 804.849 93.6083C801.678 96.0277 813.768 82.9786 808.641 87.8155C801.939 95.0089 795.237 102.202 788.535 109.395C794.291 103.731 782.64 118.508 779.706 120.49C782.262 120.8 747.596 151.811 743.258 157.409C742.354 158.575 749.704 152.285 734.036 168.17C732.339 169.89 732.515 168.803 731.687 169.763C731.191 170.338 729.469 175.016 725.314 177.828C723.798 178.857 730.71 169.671 713.841 188.262C722.167 182.362 690.708 214.281 684.683 219.932C686.009 218.917 687.335 217.902 688.66 216.888C682.537 222.317 682.018 223.844 680.729 225.153C675.538 230.425 668.056 237.352 663.366 242.401C657.877 248.307 658.749 249.161 651.942 255.665C653.671 254.229 655.401 252.792 657.131 251.356C652.62 256.028 648.11 260.699 643.601 265.37C652.758 253.349 641.316 267.674 640.513 268.572C639.235 270.007 640.651 267.553 638.503 269.942C638.285 270.192 639.068 270.267 635.715 273.91C628.709 281.521 629.265 279.803 626.287 282.963C626.016 283.255 627.381 282.624 622.321 288.161C606.238 305.763 622.091 287.785 622.663 287.067C623.415 286.125 616.1 290.477 630.617 276.326C625.753 281.087 624.531 280.881 623.987 281.42C623.506 281.898 615.519 290.559 615.098 291.055C611.374 295.502 615.387 292.278 614.704 293.184C614.143 293.923 603.725 303.614 602.975 307.468C596.891 311.077 604.373 303.425 611.979 294.945C612.828 293.465 603.954 302.289 603.503 302.767C592.425 314.494 599.724 309.092 598.045 312.351C597.161 314.06 591.85 318.092 597.064 314.66C587.109 325.398 592.609 318.383 591.87 318.987C590.758 319.901 587.535 323.901 587.054 324.33C586.349 324.959 588.237 322.245 585.56 324.822C585.118 325.253 581.627 330.176 587.223 324.853C580.054 332.253 581.165 332.13 577.701 333.674C574.834 340.708 572.974 336.303 570.943 338.228C565.542 343.35 568.598 343.257 568.405 343.613C567.039 346.037 552.363 360.472 549.089 364.384C549.341 361.868 560.282 352.528 562.26 350.001C568.852 341.575 551.373 360.384 555.27 353.432C553.431 356.155 551.592 358.878 549.752 361.6C544.752 365.07 550.154 358.565 539.488 370.512C538.475 373.15 547.14 362.17 545.838 364.781C545.07 366.319 538.769 373.138 538.835 373.449C538.939 373.798 544.432 367.446 543.878 368.738C542.658 371.551 520.899 393.105 536.492 375.789C532.039 380.522 528.222 381.537 524.824 386.074C522.626 389.007 538.809 376.073 517.286 398.056C516.122 397.864 525.526 388.926 525.703 388.631C525.948 388.214 522.724 388.407 522.366 388.627C521.12 389.425 500.404 413.055 495.04 417.125C497.77 416.081 478.901 434.527 477.21 436.877C476.763 437.505 479.29 435.956 478.788 436.606C475.641 440.642 465.162 449.719 460.743 454.344C455.796 459.518 456.904 459.312 456.628 459.602C454.437 461.865 455.838 459.729 454.516 461.13C452.519 463.245 438.72 477.708 438.099 478.501C437.918 478.734 440.712 476.878 437.822 480.142C437.321 480.707 436.997 479.749 428.413 489.39C418.072 500.998 436.638 482.306 432.884 487.637C425.051 493.98 426.236 494.645 424.3 496.54C423.628 497.195 418.018 501.5 412.863 507.053C416.468 502.978 420.072 498.904 423.675 494.829C419.859 498.579 412.904 506.287 409.716 509.337C408.162 510.824 408.709 508.912 405.522 512.321C404.849 513.048 403.775 517.426 411.446 507.859C412.699 507.694 408.323 511.566 406.633 513.68C406.378 514.001 406.242 516.078 403.27 518.018C402.553 518.48 405.916 509.289 391.997 528.087C391.549 528.692 393.69 527.132 393.261 527.732C392.967 528.142 388.748 532.318 388.348 532.841C387.941 533.378 390.295 531.657 389.822 532.308C387.401 535.644 382.184 538.118 388.097 532.097C385.971 533.969 383.845 535.842 381.719 537.715C384.942 536.597 379 541.236 376.355 544.104C359.402 562.484 371.65 551.014 369.082 554.498C364.948 560.099 366.619 554.431 360.154 562.439C359.557 563.18 368.913 554.943 351.796 572.106C354.221 569.478 356.646 566.85 359.071 564.222C356.549 564.687 350.274 573.674 349.715 574.293C343.328 581.346 347.352 576.303 338.209 587.095C337.393 588.059 335.233 589.802 333.514 591.888C326.384 600.532 343.994 581.485 344.927 581.387C345.376 581.347 326.144 601.555 325.383 602.154C322.131 604.681 333.874 592.781 331.117 594.564C330.117 595.22 303.203 624.488 297.501 630.077C290.92 636.525 286.605 638.163 288.214 639.748C284.81 640.122 284.339 642.822 283.518 643.667C273.587 653.869 273.553 653.873 265.32 662.886C263.501 664.875 261.449 666.073 260.877 666.843C260.545 667.292 261.78 667.027 260.073 669.152C259.065 670.403 255.583 673.999 251.796 677.799L228.471 629.986C235.986 629.545 244.057 629.251 245.056 629.4C246.807 629.653 235.337 630.343 237.441 630.825C245.763 630.217 253.63 629.453 261.806 628.929C265.199 628.714 263.491 629.289 264.954 629.193C265.54 629.15 277.3 627.942 276.86 627.811C275.402 627.467 239.344 630.405 248.783 628.914C250.64 628.617 257.267 629.163 256.124 627.982C288.599 625.858 321.971 624.231 354.322 623.346C336.029 624.925 314.007 625.17 294.75 626.425C292.067 626.593 282.857 627.057 284.016 627.621C300.899 626.685 321.531 625.239 337.799 624.952C338.313 624.943 336.455 625.589 338.383 625.595C342.035 625.594 353.428 624.242 355.536 624.407C355.817 624.45 349.253 625.437 351.279 625.833C356.441 626.849 357.853 624.12 362.38 624.001C366.051 623.876 389.111 624.551 394.999 623.666C401.126 622.676 377.869 623.513 379.581 622.787C394.84 621.69 411.892 622.212 426.36 622.101C426.618 622.098 424.371 621.551 427.642 621.469C433.603 621.329 435.154 622.118 438.025 622.252C441.143 622.388 451.94 622.373 453.347 622.682C453.53 622.721 451.356 623.466 451.025 623.484C446.347 623.752 444.662 622.743 444.234 622.726C442.62 622.676 441.028 623.051 439.546 623.021C437.103 622.973 435.756 622.612 432.503 622.577C430.255 622.553 432.429 623.237 430.26 623.206C429.345 623.189 421.162 621.647 420.382 623.252C419.837 623.472 489.274 624.919 495.681 625.14C489.861 624.732 484.097 624.357 478.18 624.009C490.04 624.77 504.526 624.127 505.529 626.035C550.059 628.162 594.331 632.114 638.775 639.359C646.749 640.826 642.31 641.21 655.161 643.137C651.946 642.183 648.683 641.24 645.369 640.308C651.936 641.522 681.136 647.753 686.218 648.815C686.833 648.928 687.993 648.089 695.28 649.726C701.602 651.169 702.714 652.266 706.157 653.3C709.086 654.18 712.384 654.857 713.226 655.131C713.873 655.342 714.013 655.869 715.554 656.38C720.427 658.003 716.663 655.56 721.374 658.489C720.133 658.193 718.783 657.871 717.632 657.609C723.759 659.547 731.871 662.727 722.79 660.388C721.213 659.992 722.68 659.941 721.512 659.605C676.496 647.74 712.283 657.694 728.165 661.845C731.866 663.504 754.383 670.725 755.126 671.301C756.105 671.871 752.053 670.931 756.959 673.259C758.077 673.441 787.402 685.691 776.581 681.958C774.397 681.095 760.374 675.105 756.914 673.917C764.433 678.096 783.619 684.359 785.872 685.662C794.242 689.919 769.02 678.994 788.037 688.265C802.179 695.631 789.148 687.873 794.916 690.407C798.34 691.739 813.625 702.063 813.83 700.791C819.146 704.098 815.722 702.711 816.33 703.167C817.117 703.643 827.588 710.582 830.708 713.658C831.078 714.004 829.409 713.539 829.779 713.913C830.487 714.441 840.094 722.813 840.334 723.161C840.598 723.354 838.88 720.857 839.861 721.598C841.036 722.273 849.444 731.559 850.016 732.251C850.892 732.56 840.325 721.387 842.462 722.795C847.582 727.948 855.207 736.807 858.408 741.155C857.667 740.135 853.393 734.082 851.854 732.196C853.51 732.168 862.379 745.71 858.713 741.511C860.871 744.243 859.809 742.059 861.185 743.618C861.592 744.042 864.064 748.672 864.593 749.508C864.726 749.612 862.589 744.618 863.249 745.487C864.799 746.588 870.792 762.659 870.497 764.457C871.245 768.452 867.37 754.525 866.284 753.967C866.353 753.682 869.031 765.308 868.729 765.554C868.417 765.965 867.795 762.93 866.863 760.012C865.957 757.102 864.932 754.671 864.861 755.431C865.795 758.284 866.637 761.509 867.171 764.664C864.347 751.989 852.948 735.112 849.092 732.204C859.581 743.521 865.708 761.235 863.658 761.844C862.982 761.866 860.212 755.323 860.054 755.673C859.983 756.748 863.585 766.242 863.414 766.701C863.432 767.012 863.417 767.157 863.378 767.164C863.183 767.206 862.371 763.686 861.042 760.162C859.843 756.886 858.143 753.474 857.94 753.266C857.184 752.305 858.398 758.53 858.028 758.591C857.97 758.509 857.008 756.239 856.009 754.453C855.078 752.786 854.183 751.532 854.643 753.024C855.684 755.948 858.346 763.785 858.264 764.197C858.678 765.576 853.383 752.305 852.752 752.339C852.643 752.132 855.217 759.166 855.038 759.476C854.998 759.695 852.459 754.552 850.959 752.991C849.886 751.756 851.722 756.015 851.286 755.313C851.24 754.68 844.76 744.056 844.133 743.718C843.837 743.401 844 743.861 844.202 744.387C844.423 744.938 844.664 745.537 844.493 745.395C843.969 744.903 841.861 741.831 842 742.314C842.329 742.391 849.2 756.275 848.358 756.434C847.839 756.489 841.336 742.221 846.072 756.195C846.13 756.299 847.764 759.251 847.793 759.424C848.093 761.562 843.164 751.784 848.323 764.145C837.088 741.976 846.386 761.759 843.655 758.9C842.809 757.81 837.752 750.063 837.51 750.082C837.582 751.194 839.6 753.393 839.833 754.372C840.104 754.927 834.833 748.385 835.572 750.211C836.144 751.12 840.673 758.278 840.685 758.699C841.819 761.808 839.631 758.409 839.706 759.183C839.815 759.66 841.829 764.171 841.781 764.313C841.87 764.469 838.463 758.802 837.387 757.71C836.691 756.878 838.364 760.544 837.912 759.926C835.527 756.271 830.933 747.726 834.61 756.39C834.813 756.875 836.559 759.773 836.565 759.884C837.097 761.938 834.058 756.6 833.008 755.98C831.395 754.853 836.372 761.874 832.059 756.128C834.537 760.835 836.118 763.573 837.969 768.874C835.403 761.308 831.103 756.817 829.973 756.018C828.617 755.279 830.951 758.179 834.543 766.121C832.305 761.071 831.354 762.141 830.524 760.672C830.192 759.834 825.847 752.094 826.217 756.755C826.319 757.318 829.461 761.341 828.05 760.359C821.071 750.307 827.712 760.361 827.511 760.423C826.876 760.764 822.9 754.668 816.576 748.465C810.494 742.295 802.417 736.208 799.984 734.668C794.086 730.841 788.337 728.884 786.89 728.048C782.691 725.662 786.474 727.128 785.64 726.405C784.92 725.618 771.573 720.008 770.947 719.753C768.521 718.322 771.402 718.909 771.154 718.753C768.101 716.632 750.026 709.587 744.832 707.658C744.909 708.143 755.033 712.096 748.438 710.337C740.667 708.312 740.758 706.266 740.614 706.104C705.795 693.765 668.667 685.82 630.975 680.169C631.517 681.283 655.704 684.434 656.445 684.815C659.372 685.993 618.305 679.361 613.189 678.582C617.067 679.324 620.881 680.082 624.631 680.856C618.134 681.197 603.194 677.614 593.819 677.197C590.706 677.045 596.585 678.181 596.45 678.203C592.953 678.313 587.362 677.346 591.636 677.122C583.02 676.869 584.238 676.288 577.655 675.608C577.324 675.577 580.028 676.345 574.934 676.096C572.593 675.965 559.615 674.899 557.762 675.236C557.032 675.371 563.522 677.901 564.47 676.236C578.43 678.257 569.035 675.821 574.444 676.332C575.356 676.439 572.983 677.127 587.138 678.072C584.19 679.493 568.649 676.763 565.885 676.777C560.334 676.735 582.992 679.575 587.611 678.749C585.464 679.901 589.268 679.092 594.364 679.702C599.919 680.374 597.446 680.509 600.429 680.849C608.575 681.814 605.452 680.479 612.203 682.191C605.885 678.69 623.926 683.34 629.028 684.846C620.448 683.722 611.847 682.727 602.906 681.811C603.368 682.007 603.849 682.205 604.348 682.405C602.036 682.11 599.859 681.84 597.586 681.566C597.964 681.473 598.341 681.38 598.719 681.287C586.94 680.856 583.96 679.629 583.001 679.513C570.664 678.184 555.826 677.018 543.462 676.246C541.544 676.137 542.935 677.055 528.93 675.603C524.423 675.152 528.741 674.675 523.584 674.525C517.338 676.115 517.518 674.632 515.674 674.549C510.372 674.326 507.043 674.68 506.547 674.666C499.863 674.495 489.996 674.14 482.867 674.075C482.732 674.079 486.481 674.737 481.785 674.471C480.326 674.376 464.727 671.609 452.096 672.424C455.471 672.598 458.772 672.781 462.138 672.974C458.355 672.649 430.24 673.391 437.102 674.042C441.379 674.412 451.604 672.785 452.688 674.345C443.457 673.664 391.708 675.332 387.723 675.261C387.177 675.227 390.517 674.609 389.762 674.568C389.201 674.528 377.524 675.053 375.925 674.926C374.992 674.844 380.186 674.336 379.755 674.169C379.417 674.038 364.588 674.406 363.721 675.1C367.41 674.675 377.624 674.501 372.287 675.252C371.602 675.346 368.002 675.078 367.159 675.2C359.389 676.307 382.686 675.162 386.118 675.087C371.831 676.361 349.008 676.418 332.32 677.936C325.449 677.789 342.405 676.542 334.655 676.532C318.499 676.539 330.416 677.522 329.921 677.618C325.953 678.385 312.042 676.337 312.297 678.557C306.57 678.603 308.419 678.191 300.31 679.047C301.392 679.126 302.471 679.205 303.549 679.285C294.694 681.174 274.903 679.429 276.322 679.073C280.257 678.087 290.464 678.366 291.309 678.283C292.56 678.158 296.024 675.609 309.831 676.713C315.391 674.808 287.947 677.19 300.401 675.29C291.88 675.988 256.854 677.709 251.896 678.87C251.296 679.013 254.251 680.28 245.487 680.278C241.319 680.278 251.287 679.372 249.364 679.194C247.871 679.055 241.715 679.434 232.946 680.169L175.734 685.062L215 643.383C232.576 624.798 264.354 589.944 271.983 581.651C272.647 580.932 272.757 581.526 273.408 580.817C275.408 578.641 282.203 570.248 285.963 566.521C277.856 573.946 292.274 558.287 296.027 554.383C301.724 548.459 302.006 549.418 304.553 546.94C314.374 537.389 327.291 520.439 335.923 513.957C334.132 513.078 349.11 501.115 354.994 494.802C359.602 489.858 365.34 481.797 358.571 487.958C366.568 479.462 374.656 470.21 382.01 462.103C383.226 460.763 381.95 462.98 384.011 460.681C384.195 460.469 384.049 459.803 385.808 457.819C400.325 441.436 393.96 450.061 397 447.299C398.701 445.753 399.923 444.581 400.79 443.693C392.198 453.12 382.355 464.057 379.691 466.952C382.877 465.337 398.741 446.064 403.946 440.942C404.127 440.765 404.029 441.88 404.207 441.695C404.211 441.691 404.215 441.687 404.218 441.683C406.117 439.714 417.775 426.775 414.737 428.842C413.923 429.398 408.473 435.276 402.063 442.297C403.7 440.306 401.833 441.189 402.117 440.834C405.583 436.536 415.302 427.157 418.63 423.719C419.39 422.932 418.975 422.651 419.096 422.519C422.137 419.404 421.956 421.68 423.926 417.41C430.572 412.835 414.075 428.419 415.995 428.029C417.47 427.73 451.344 390.528 450.218 389.68C450.445 389.655 451.051 389.275 452.171 388.379C454.653 386.392 464.069 376.026 465.523 374.077C465.763 373.743 464.657 372.931 464.991 372.552C465.828 371.602 478.247 359.783 482.002 354.543C479.515 356.944 477.028 359.344 474.542 361.745C488.704 346.448 486.215 348.531 481.196 353.347C480.957 353.599 480.689 353.811 480.46 354.051C476.58 357.793 471.677 362.658 471.527 362.661C470.959 362.67 494.823 336.563 491.131 342.425C490.613 343.239 479.078 354.856 485.248 349.533C486.327 348.602 493.281 340.716 493.73 340.38C496.728 338.127 481.772 355.561 484.368 354.148C487.499 349.45 492.705 344.532 496.879 339.689C498.779 337.485 498.76 336.491 498.994 336.219C502.506 332.165 500.99 334.866 502.193 333.541C502.837 332.829 508.89 324.03 509.087 326.947C531.602 300.361 514.488 318.819 500.065 334.557C504.085 329.082 513.347 319.638 517.249 315.163C518.648 313.556 517.271 313.996 519.611 311.26C524.427 305.629 549.044 280.264 555.446 273.645C551.788 277.966 553.483 277.287 556.411 274.05C559.338 270.811 556.082 272.786 556.579 272.085C557.114 271.336 571.393 256.653 573.609 254.062C563.409 265.629 566.343 263.612 575.299 254.073C574.178 255.615 573.057 257.156 571.936 258.697C576.918 252.856 588.758 241.853 591.513 238.358C591.944 237.809 589.761 239.189 590.003 238.88C592.441 235.836 601.93 226.597 602.184 225.991C602.401 225.479 598.157 229.237 599.381 227.514C599.636 227.154 603.991 223.778 607.472 219.698C608.765 218.184 607.491 218.632 607.805 218.24C610.421 214.972 609.521 217.503 614.583 211.792C618.29 207.608 620.361 203.844 625.863 198.415C607.656 216.11 622.552 200.852 629.464 192.798C630.572 191.507 628.742 191.79 636.051 184.723C622.885 201.997 641.042 180.956 644.92 176.805C645.137 176.581 645.765 177.023 647.668 174.988C647.828 174.814 647.222 174.711 648.953 172.785C665.372 154.518 655.125 166.433 658.667 163.359C660.176 162.05 667.76 152.793 669.933 150.422C670.435 149.878 670.596 150.495 672.526 148.382C675.939 144.643 678.604 140.924 680.841 138.442C681.104 138.154 681.737 138.724 685.841 133.89C686.995 132.531 688.133 130.858 686.235 132.545C679.946 138.149 670.147 150.77 663.118 157.177C656.711 163.022 675.187 142.976 676.148 141.932C676.499 141.549 673.189 145.743 676.926 141.832C680.117 138.491 684.78 131.293 689.691 126.461C690.065 126.092 694.716 122.911 694.597 123.147C694.479 123.352 688.936 129.733 690.034 129.08C690.164 129.001 693.806 125.058 694.48 124.728C695.302 124.323 699.227 124.825 700.066 124.041C702.213 122.021 700.374 122.922 701.706 121.562C704.559 118.644 714.885 108.923 714.38 107.82C712.741 109.488 711.102 111.157 709.464 112.826C718.228 103.211 714.107 106.95 715.207 105.455C716.391 103.844 716.731 104.927 719.781 101.775C720.445 101.09 732.775 87.4984 732.244 87.4592C725.825 95.3493 727.492 91.7566 727.158 92.0849C725.891 93.3341 724.847 95.4666 723.215 97.2057C711.728 109.432 722.445 96.2907 719.549 99.0046C718.554 99.9405 717.133 102.331 716.718 102.734C715.37 104.046 714.791 103.547 713.984 104.509C712.099 106.753 715.211 104.986 715.094 105.194C713.81 107.572 706.229 114.51 709.708 109.031C706.797 111.55 707.533 112.854 705.053 114.69C700.125 118.346 706.484 111.912 708.013 109.987C713.492 103.079 715.665 101.541 723.984 92.2885C726.981 88.9574 730.079 84.5887 731.464 83.0376C732.335 82.0595 742.515 74.6527 739.982 71.7855C743.516 68.5099 750.476 64.6952 753.759 60.986C756.704 57.6542 754.756 57.7676 755 57.4276C755.372 56.9051 759.103 53.0345 760.199 51.57C761.482 49.8527 760.382 50.2801 762.525 47.6558C767.859 41.126 768.72 42.2333 769.373 41.6604C776.955 35.0077 772.529 36.8855 773.927 35.1433C775.097 33.6863 791.646 16.7045 797.714 9.79573L834.186 54.5555C833.162 55.2189 832.304 55.7741 831.686 56.1968C832.507 55.6051 833.312 55.0116 834.101 54.4159L797.833 9.90745C796.84 11.2538 795.848 12.6 794.855 13.9461C796.265 12.9165 797.454 11.6263 798.452 10.486L833.659 53.6933C831.265 55.2512 829.394 56.4943 828.873 55.6893C829.036 58.5921 818.542 62.1848 815.926 63.3964C814.823 63.9435 815.095 64.2937 813.68 64.964C808.126 67.6827 795.832 72.1557 792.82 73.4252C780.219 79.1198 813.722 68.2656 816.559 66.4398C811.29 69.376 781.755 80.8721 795.94 76.9268C798.16 76.3084 801.416 73.8252 802.52 73.3311C810.603 69.7276 804.555 73.2907 805.231 73.1206C806.437 72.8116 811.2 69.7217 812.663 69.181C813.128 68.9936 810.528 71.2484 818.279 67.6747C814.602 70.6948 793.019 78.5047 790.261 79.4859C789.274 79.8408 796.198 79.7422 777.26 83.9371C777.524 84.0406 777.787 84.1441 778.051 84.2473C767.641 87.5924 757.718 90.3711 747.434 92.9395C748.477 92.2661 754.062 90.0436 746.805 91.9992C742.575 93.1139 745.93 93.2548 745.549 93.3732C741.934 95.4138 675.772 106.708 663.004 107.309C658.783 107.828 646.425 109.733 645.644 109.795C640.195 110.407 620.522 111.257 616.617 111.516C614.159 111.714 616.538 112.372 614.332 112.449C612.276 112.518 614.37 111.656 613.759 111.655C608.836 111.817 570.944 113.822 562.066 112.891C567.399 113.217 594.732 111.206 594.274 110.607C594.139 110.543 587.442 110.143 586.136 110.446C583.908 109.843 576.187 111.973 571.885 111.603C571.434 111.558 573.194 110.439 565.759 110.257C563.209 110.192 556.466 111.064 549.556 109.98C539.771 110.654 487.956 106.724 484.428 107.436C484.324 107.497 491.578 108.409 486.619 108.578C479.998 108.786 486.084 106.967 478.41 106.209C477.219 106.133 456.26 104.593 455.457 104.617C448.881 105.29 467.435 107.494 467.119 107.584C466.49 107.926 450.98 106.755 450.369 106.585C449.772 106.437 462.49 105.966 447.415 105.155C449.107 105.525 450.721 105.883 452.482 106.253C445.399 105.967 444.897 104.731 443.198 104.489C437.964 103.724 431.924 104.87 423.663 101.699C421.521 100.862 425.272 100.651 425.004 100.531C422.45 99.4446 418.793 101.123 414.959 99.0715C414.661 98.9091 424.198 99.1769 407.751 97.0927C408.867 97.3887 409.983 97.6831 411.096 97.9757C408.72 98.0385 391.998 95.9898 389.851 95.5792C383.383 94.4174 389.223 94.1688 382.648 93.3395C386.676 95.4534 366.514 92.604 367.981 91.5089C365.042 92.6964 348.261 88.6962 340.374 87.2385C335.467 86.3614 325.173 85.1889 323.586 84.8011C321.666 84.3377 322.467 83.3667 319.005 82.4587C317.938 82.1861 307.591 81.0346 298.763 78.0595C297.053 77.4869 293.747 74.8835 297.111 75.0958C302.874 75.4694 313.018 79.009 313.097 77.8884C313.191 76.712 298.951 74.5954 295.119 73.6253C277.493 69.1965 288.023 70.1034 287.652 69.6409C286.613 68.4753 277.189 66.4666 276.785 66.2854C275.223 65.5628 282.12 66.3142 282.338 65.776C282.626 65.0869 273.76 61.7703 275.896 61.9825C278.972 62.3061 287.078 65.1974 287.65 65.2601C294.891 66.0662 285.525 62.3298 283.169 60.9496C282.435 60.5256 285.674 60.793 285.035 60.5767C275.274 57.27 282.414 62.4744 275.777 60.77C269.837 59.2322 277.787 59.8468 277.567 59.7322C277.293 59.6055 270.148 57.9483 269.107 57.2991C268.637 57.0107 287.638 58.967 287.04 57.8126C281.135 56.7581 275.182 55.6611 269.182 54.5207C269.008 53.1713 277.329 56.0107 278.23 56.0684C280.056 56.2025 275.265 54.475 275.565 54.1252C275.739 53.9012 281.722 54.2913 276.581 52.7582C274.812 52.2272 270.842 52.2655 264.436 49.8439C287.604 53.9164 271.893 49.6059 271.331 49.0152C270.775 48.423 281.91 49.8585 268.634 47.0302C268.619 44.4648 269.102 46.3313 272.957 46.7586C277.659 47.2634 267.279 44.1078 283.846 48.4421C283.17 47.1139 269.692 44.1568 268.976 43.8822C268.377 43.6578 271.514 43.7891 270.485 43.3529C258.288 38.2092 266.784 41.2365 263.429 38.9728C263.03 38.7544 251.498 35.4566 260.459 37.3736C277.183 40.9291 283.648 43.9919 287.16 41.1628C275.466 37.025 259.861 35.68 256.333 34.8652C250.708 33.5682 256.692 34.2653 256.047 33.901C255.825 33.782 250.969 32.6678 250.915 32.5938C248.056 29.138 272.604 37.7687 280.692 39.0458C278.657 38.1737 276.618 37.2959 274.574 36.4125C277.472 37.0608 280.36 37.6987 283.237 38.3262C269.687 34.4312 282.843 37.9338 286.701 36.5492C287.571 36.2415 278.432 35.0643 288.94 36.0098C281.478 34.0262 283.985 34.1312 276.985 33.169C277.435 32.3866 292.796 34.8413 299.177 35.7356C277.814 30.0434 289.522 35.9441 271.221 30.0046C267.504 30.2545 276.484 32.1245 275.712 32.1254C273 32.1635 266.949 29.7124 259.202 30.1772C257.931 30.2531 262.679 32.5715 255.273 30.7319C254.455 30.5282 249.939 28.42 250.021 28.3653C250.835 27.7783 255.457 29.1995 255.723 28.9336C255.977 28.686 250.704 27.5884 250.703 27.4998C250.771 26.5301 255.156 28.2104 254.569 27.7575C253.302 26.781 234.988 20.1639 259.368 26.7464C238.755 22.8322 256.54 27.1835 264.528 28.6398C266.617 29.0275 267.271 28.5956 270.245 29.0889C274.07 29.7216 278.388 30.9935 280.342 31.3298C282.435 31.6827 270.972 27.7125 287.892 31.944C279.636 28.7462 263.633 26.4749 255.562 23.5168C238.994 17.4812 267.816 24.1396 271.123 24.6676C271.951 24.8108 269.389 23.4154 269.944 23.4973C270.879 23.665 287.371 27.8247 289.095 27.5352C290.85 27.2788 283.067 26.2097 282.696 25.4392C282.488 24.9578 302.391 28.5717 291.779 25.9029C284.492 24.0821 270.301 22.6212 268.39 20.1649C279.54 22.6492 290.22 24.9143 301.348 27.1631C295.36 25.1159 289.721 23.1065 283.895 21.0209C296.018 23.553 306.75 26.7262 318.519 28.0856C291.051 19.9255 327.894 28.1634 328.431 27.9024C328.522 27.757 317.991 23.6739 316.292 22.9513C325.949 24.303 356.043 29.694 339.034 24.0405C342.102 25.1812 349.916 25.3325 349.827 25.2127C349.09 24.0485 332.336 21.4763 335.215 21.0774C338.577 20.638 342.709 22.9429 347.531 23.7355C372.482 27.7095 366.489 21.2205 391.285 26.1641C390.817 25.8964 390.348 25.6284 389.879 25.36C416.699 29.9789 443.995 33.8595 471.107 36.7855C481.632 36.2697 510.282 37.5262 523.997 38.3053C526.65 38.5021 540.59 39.9168 541.538 40.0736C543.45 40.4281 532.912 40.1439 537.66 40.8505C538.628 41.0618 561.907 41.995 560.238 41.0242C557.67 40.8903 549.414 41.15 548.071 40.8946C538.913 39.6111 610.276 41.0374 613.712 39.5856C612.115 39.367 610.509 39.144 608.897 38.9167C613.463 38.8898 617.957 38.8295 622.379 38.7374ZM405.408 100.44C402.382 100.971 395.311 99.3292 391.119 98.9961C385.299 98.5522 374.769 100.553 379.605 97.6909C388.315 98.6992 396.566 99.5667 405.408 100.44ZM531.662 112.092C525.788 111.426 530.447 109.65 535.203 110.581C535.725 110.684 539.571 112.96 531.662 112.092ZM470.686 107.778C470.934 107.774 475.877 108.214 476.043 108.255C480.426 109.384 465.498 108.048 470.686 107.778ZM767.093 86.0568C760.691 87.9474 765.839 88.2751 769.577 86.4571C769.812 86.3432 767.512 85.934 767.093 86.0568ZM762.503 87.3008C756.879 87.2984 747.869 92.7291 755.689 90.4158C756.37 90.2193 762.781 87.3118 762.503 87.3008ZM510.919 110.52C511.614 109.951 517.593 110.514 520.116 110.754C520.029 111.306 513.453 110.579 510.919 110.52ZM664.053 106.442C664.37 106.006 643.13 108.087 641.861 108.738C645.012 108.278 663.972 106.922 664.053 106.442ZM717.987 97.86C717.341 97.9108 710.255 99.3154 710.509 99.6745C714.071 99.5997 720.483 97.7564 717.987 97.86ZM825.654 63.9449C826.058 63.5359 819.14 64.6486 833.314 58.5889C835.427 57.652 828.654 62.3229 829.363 61.9915C830.983 61.302 832.203 60.6971 833.146 60.1639C826.825 64.1099 820.486 67.2306 819.893 67.3513C818.343 67.6899 819.643 66.9603 821.449 66.0488C823.343 65.0977 825.577 64.0105 825.654 63.9449ZM766.06 40.9375C765.549 42.0932 760.216 47.5326 758.916 48.6895C758.69 48.8863 758.785 47.1985 756.515 49.7708C754.694 51.8372 758.292 49.5713 754.52 53.3871C750.71 57.2444 755.055 51.3933 754.692 51.7022C754.208 52.118 748.875 58.6097 748.585 57.9813C748.371 57.5149 754.704 51.1401 756.138 49.4408C757.975 47.2643 755.055 49.2556 758.407 45.8817C760.512 43.7614 760.405 45.9283 760.885 45.5135C761.285 45.1644 767.79 36.9528 766.046 40.9464C766.05 40.9434 766.055 40.9405 766.06 40.9375ZM834.797 59.1146C834.358 59.4335 833.823 59.7812 833.146 60.1639C833.707 59.8147 834.258 59.463 834.797 59.1146ZM422.088 101.847C424.993 102.657 416.133 102.208 412.837 101.177C412.853 100.692 421.637 101.729 422.088 101.847ZM792.85 10.5351C787.16 16.202 790.216 12.2478 794.684 6.96218L836.35 58.0948C835.847 58.4311 835.328 58.7719 834.797 59.1146C835.434 58.6517 835.867 58.2476 836.214 57.8735L794.874 7.13937C794.38 8.24044 794.364 9.02735 792.85 10.5351ZM586.136 110.446C586.509 110.547 586.747 110.712 586.781 110.99C585.801 110.706 585.711 110.544 586.136 110.446ZM606.929 110.276C613.927 109.125 599.636 109.77 599.702 110.352C599.763 110.585 606.66 110.328 606.929 110.276ZM775.425 83.6632C774.729 83.7804 784.238 78.2877 769.904 84.591C778.014 82.4754 769.604 85.2793 769.821 85.4328C770.443 85.9544 783.244 81.3615 786.44 80.4913C788.374 78.6756 777.632 83.3111 775.442 83.658C775.436 83.6597 775.431 83.6615 775.425 83.6632ZM699.222 112.298C699.928 110.599 703.79 106.725 706.323 104.042C705.618 105.742 701.755 109.615 699.222 112.298ZM477.189 674.56C451.935 674.735 448.87 672.613 471.839 673.666C472.298 673.687 478.71 674.364 477.189 674.56ZM263.074 682.26C260.664 681.477 268.377 680.668 273.41 680.673C274.552 680.672 278.807 681.328 274.044 681.904C274.114 680.706 266.66 680.852 263.074 682.26ZM790.09 14.607C788.952 16.9707 783.317 22.252 780.475 25.1538C781.696 22.903 787.475 17.0777 790.09 14.607ZM395.122 674.02C392.385 674.027 390.749 674.912 391.178 674.968C393.097 675.223 398.222 674.406 395.122 674.02ZM818.219 65.6843C817.547 65.5729 828.133 59.707 829.482 60.1447C827.138 61.4418 818.473 65.9341 818.219 65.6843ZM704.194 107.422C705.438 106.415 700.162 112.718 698.31 114.385C698.096 113.912 703.38 108.083 704.194 107.422ZM352.776 675.952C350.47 675.989 344.656 676.264 344.021 676.639C343.248 677.102 351.76 676.521 352.776 675.952ZM777.231 726.515C777.304 726.681 769.592 723.898 766.121 722.062C759.782 718.563 777.048 726.125 777.231 726.515ZM420.122 673.029C427.441 673.703 419.32 673.065 419.644 673.89C424.467 673.828 437.071 673.742 428.362 673.022C426.716 672.883 422.429 673.044 420.122 673.029ZM413.324 672.873C412.538 673.156 407.196 674.117 411.822 673.959C413.958 673.885 417.372 672.881 413.324 672.873ZM727.81 706.714C722.004 703.961 749.639 713.829 750.072 714.428C750.447 714.643 750.684 714.8 750.813 714.906C751.818 715.056 757.072 717.167 757.39 717.906C755.934 717.233 751.638 715.541 751.201 715.311C751.01 715.207 750.868 715.125 750.774 715.061C749.064 714.721 729.028 707.096 727.81 706.714ZM680.683 693.347C688.133 693.963 688.886 695.963 688.286 695.87C680.431 694.783 685.738 694.696 685.522 694.583C685.02 694.358 679.315 693.693 680.706 693.352C680.698 693.351 680.691 693.349 680.683 693.347ZM718.365 703.488C718.686 703.55 724.372 705.345 724.707 705.49C729.332 707.511 712.85 702.324 718.365 703.488ZM739.411 72.0031C736.1 75.2574 738.599 71.3644 740.906 69.3011C741.099 69.1349 742.333 69.1327 739.411 72.0031ZM409.673 673.131C408.613 672.98 381.256 673.287 383.041 674.295C385.08 674.041 416.376 673.771 409.673 673.131ZM231.058 621.081C227.755 624.635 230.614 620.066 232.647 618.422C233.401 617.813 231.89 620.184 231.058 621.081ZM803.461 71.0028C798.484 73.685 798.716 71.2639 803.564 70.1191C803.757 70.0724 803.662 70.8941 803.461 71.0028ZM244.845 683.034C228.09 685.194 231.933 681.602 253.645 680.756C252.984 680.955 252.321 681.154 251.658 681.354C276.419 679.708 253.435 681.403 247.29 682.142C244.968 682.418 246.965 682.77 244.861 683.036C244.856 683.035 244.85 683.035 244.845 683.034ZM248.438 602.401C261.053 592.135 239.063 613.69 233.283 620.366C238.412 613.451 246.081 605.374 235.09 615.834C249.999 599.455 244.398 606.84 245.053 606.242C245.826 605.532 247.9 602.838 248.438 602.401ZM219.569 633.6C219 634.308 214.149 638.909 212.358 640.911L166.606 689.475L233.267 683.773C233.341 683.764 233.412 683.756 233.48 683.748C233.414 683.769 233.344 683.789 233.27 683.81L166.512 689.521L212.33 640.886C214.408 637.605 223.369 628.848 219.569 633.6ZM629.296 684.476C629.947 684.014 631.468 683.812 636.798 684.852C635.104 684.867 631.62 684.577 629.296 684.476ZM400.48 95.7729C396.606 95.2025 389.074 93.8494 391.285 94.9654C391.556 95.079 400.325 96.2084 400.48 95.7729ZM330.697 675.831C329.894 675.783 308.928 677.044 316.156 677.247C318.369 677.284 337.452 676.082 330.697 675.831ZM437.993 672.336C436.253 672.336 429.075 672.514 428.915 672.656C428.442 673.131 437.243 672.787 437.993 672.336ZM381.196 92.2578C380.717 92.1195 368.771 90.4283 370.077 90.9967C372.365 92.0704 382.933 92.7953 381.196 92.2578ZM729.131 85.4977C728.488 86.2297 727.062 86.66 726.827 86.9015C726.281 87.4752 714.377 100.753 718.3 95.0961C718.954 94.1517 736.654 75.5843 738.992 73.2022C740.626 72.9642 732.459 80.3291 730.726 82.3586C730.421 82.717 730.849 83.5293 729.133 85.4888C729.132 85.4918 729.132 85.4947 729.131 85.4977ZM657.142 688.484C658.071 688.05 677.871 691.669 677.591 692.326C670.585 690.894 664.074 689.682 657.142 688.484ZM646.906 686.585C642.752 685.504 652.67 687.059 655.716 687.8C655.706 688.145 647.398 686.711 646.906 686.585ZM398.639 670.932C396.528 671.123 403.046 671.76 401.594 671.955C400.671 672.075 395.933 671.898 394.417 672.196C393.992 672.288 398.852 672.91 400.237 672.843C402.212 672.748 400.285 672.201 402.438 672.143C409.579 671.953 415.82 672.256 422.327 672.149C422.915 672.138 418.352 671.786 423.365 671.718C424.139 671.708 428.752 672.262 435.015 672.121C448.776 670.105 457.973 671.978 475.476 671.541C474.878 671.339 461.89 670.704 461.139 670.693C447.311 670.236 421.296 670.407 406.494 670.78C402.624 670.868 404.511 671.236 402.841 671.291C401.516 671.335 403.083 670.532 398.639 670.932ZM402.636 95.511C400.847 94.2796 394.419 94.035 390.321 93.3971C391.676 94.4936 398.489 94.7412 402.636 95.511ZM555.729 675.273C553.61 675.141 547.555 674.503 547.037 674.694C546.351 674.933 555.177 675.725 555.729 675.273ZM660.625 159.067C660.509 159.229 657.136 162.8 656.989 162.917C653.486 165.649 663.605 154.94 660.625 159.067ZM580.649 245.151C578.196 247.957 575.841 250.899 574.475 251.335C576.167 249.667 580.586 244.494 580.649 245.151ZM470.5 364.088C471.679 364.138 463.634 371.964 462.136 373.463C462.379 372.615 469.643 364.059 470.5 364.088ZM628.861 681.97C635.619 683.022 634.362 681.663 638.499 682.844C639.159 683.044 641.018 685.773 633.851 683.744C632.54 683.383 637.865 683.594 628.861 681.97ZM257.146 680.48C258.822 679.782 264.186 679.493 267.773 679.244C267.006 679.715 259.732 680.216 257.146 680.48ZM360.107 88.1606C357.074 86.6886 341.86 84.8194 345.476 86.1004C346.011 86.2907 358.04 87.7986 360.107 88.1606ZM780.401 29.406C776.771 34.3784 785.536 25.2456 787.739 21.8355C786.543 23.1939 780.646 29.0715 780.401 29.406ZM497.321 335.858C497.141 336.092 492.691 340.801 492.47 340.992C488.354 344.413 500.943 331.084 497.321 335.858ZM607.734 217.577C606.559 219.675 595.793 230.621 593.044 232.761C594.693 229.771 609.188 214.97 607.734 217.577ZM601.525 678.719C606.138 679.23 610.914 679.968 615.195 680.733C614.311 680.993 601.798 679.027 601.525 678.719ZM481.196 353.347C480.957 353.599 480.689 353.811 480.46 354.051C480.709 353.81 480.956 353.576 481.196 353.347ZM494.258 671.057C490.242 670.787 491.09 671.554 491.321 671.581C494.203 671.894 498.966 671.373 494.258 671.057ZM398.069 93.4269C396.782 92.362 389.789 92.0787 385.808 91.2807C386.873 92.148 394.882 93.091 398.069 93.4269ZM261.232 590.738C265.299 587.492 251.715 603.467 248.35 606.364C247.781 606.278 260.643 591.219 261.232 590.738ZM794.199 16.3282C794.778 16.4358 798.126 12.3104 798.944 10.9469L833.307 53.1177C832.895 53.4855 832.81 53.6479 833.278 53.4433C833.329 53.4207 833.388 53.3926 833.455 53.359L798.738 10.7536C797.594 11.7612 793.758 16.2385 794.199 16.3282ZM240.952 613.868C239.739 615.427 236.219 618.417 237.073 617.003C238.169 615.19 241.262 613.461 240.952 613.868ZM368.989 671.45C368.149 671.394 356.538 672.453 361.367 672.791C364.716 673.026 365.209 672.229 365.99 672.193C366.896 672.146 385.324 672.387 368.989 671.45ZM341.331 505.023C338.524 508.376 334.749 512.073 331.655 515.436C332.662 513.829 339.725 506.064 341.331 505.023ZM771.27 41.3235C772.18 40.7229 791.93 19.6446 780.191 31.1328C779.507 31.8037 768.507 43.1489 771.27 41.3235ZM628.861 681.97C627.988 681.836 627.051 681.675 625.972 681.47C627.048 681.644 627.986 681.815 628.861 681.97ZM553.061 673.797C554.578 673.525 546.945 672.888 544.655 672.948C543.96 673.358 552.75 673.819 553.061 673.797ZM331.842 516.086C330.226 518.18 326.792 521.511 324.597 523.92C324.69 523.252 330.782 516.653 331.842 516.086ZM457.856 380.799C454.128 384.47 449.834 389.263 450.124 389.669C449.994 389.697 449.762 389.827 449.417 390.08C449.069 390.337 445.427 394.599 443.651 396.27C433.025 406.278 481.472 354.617 454.573 385.663C455.668 384.042 456.762 382.42 457.856 380.799ZM622.73 203.166C625.202 201.415 630.283 194.788 628.637 196.202C627.493 197.188 620.253 204.917 622.73 203.166ZM545.363 287.147C546.045 286.571 551.25 280.329 551.157 279.956C547.738 283.146 542.246 289.765 545.363 287.147ZM638.773 186.938C640.109 185.637 640.988 183.206 640.807 183.336C639.252 184.473 636.237 188.849 638.773 186.938ZM615.568 677.872C612.971 677.279 603.949 676.768 602.177 677.125C601.849 676.98 600.951 676.735 599.277 676.377C599.283 676.377 599.288 676.378 599.293 676.378C597.191 675.465 527.104 669.452 573.947 674.399C575.385 674.564 573.463 673.883 579.308 674.517C579.713 674.562 579.875 674.983 581.119 675.122C584.057 675.42 598.918 677.253 601.799 677.293C601.814 677.37 601.995 677.462 602.387 677.573C605.927 678.549 617.688 678.325 615.568 677.872ZM534.488 299.003C535.726 297.926 539.119 294.022 539.177 293.342C537.284 295.082 531.612 301.502 534.488 299.003ZM773.214 41.9147C775.744 39.7257 780.976 33.0753 778.977 34.6945C777.751 35.6872 770.298 44.441 773.214 41.9147ZM569.525 260.885C556.191 274.533 566.459 264.251 564.925 266.817C566.459 264.84 567.992 262.863 569.525 260.885ZM699.704 695.014C696.885 694.177 700.509 694.052 703.443 695.389C704.363 695.81 701.28 695.48 699.704 695.014ZM814.443 747.789C813.504 745.609 820.673 753.483 817.335 750.954C817.197 750.811 814.532 747.892 814.443 747.789ZM737.842 705.721C735.818 705.659 734.667 705.312 729.391 703.43C737.259 705.856 730.263 702.941 737.842 705.721ZM450.218 389.68C450.174 389.685 450.139 389.692 450.124 389.669C450.168 389.66 450.197 389.665 450.218 389.68ZM650.826 173.653C652.916 172.339 657.433 167.399 655.607 168.421C655.433 168.522 651.146 172.613 650.826 173.653ZM602.177 677.125C602.467 677.254 602.306 677.296 601.799 677.293C601.784 677.22 601.921 677.17 602.177 677.125ZM626.769 200.357C626.586 199.858 619.525 207.202 619.288 207.539C615.911 212.386 623.93 203.46 626.769 200.357ZM804.171 64.5018C803.662 64.7728 807.584 64.5246 809.43 63.1511C810.89 62.0813 806.099 63.4993 804.171 64.5018ZM755.498 712.121C758.406 713.301 762.292 714.981 762.8 715.714C761.045 714.846 755.335 712.409 755.498 712.121ZM811.71 744.484C808.949 742.731 802.905 738.016 798.849 735.205C799.28 734.503 809.473 742.52 811.71 744.484ZM623.945 679.292C623.719 679.222 615.967 677.943 616.955 678.581C618.441 679.503 626.08 679.862 623.945 679.292ZM820.434 57.7755C823.946 55.4954 814.837 58.6733 811.423 61.2844C809.697 62.6907 819.698 58.313 820.434 57.7755ZM665.649 158.903C668.638 155.162 660.136 163.409 659.476 165.055C661.008 163.477 664.586 160.231 665.649 158.903ZM555.655 278.405C567.187 268.596 559.239 272.379 557.634 274.531C557.408 274.835 555.374 278.646 555.655 278.405ZM323.379 77.5222C321.184 77.4005 328.972 79.9181 330.119 79.4315C330.835 79.1328 324.789 77.6072 323.379 77.5222ZM400.79 443.693C401.218 443.224 401.642 442.758 402.063 442.297C401.765 442.659 401.353 443.116 400.79 443.693ZM696.922 128.825C687.815 134.806 690.039 135.363 689.404 136.029C688.031 137.467 684.374 140.374 681.91 143.199C684.616 139.854 687.321 136.508 690.025 133.161C687.581 135.517 666.857 156.458 666.745 157.198C666.58 158.255 672.745 151.332 672.967 151.17C673.287 150.937 675.487 151.013 676.118 150.426C677.154 149.458 693.932 131.433 696.922 128.825ZM576.844 255.153C575.058 256.795 574.121 256.86 573.469 257.788C573.248 258.105 573.653 258.569 572.88 259.635C574.201 258.141 575.523 256.647 576.844 255.153ZM708.104 113.323C710.71 111.655 701.354 121.306 700.997 121.563C699.051 122.89 705.976 114.686 708.104 113.323ZM630.63 197.005C630.996 196.676 638.189 189.272 637.823 189.045C635.731 190.826 626.28 200.879 630.63 197.005ZM571.813 260.847C569.294 263.456 564.183 268.061 565.39 268.114C565.394 268.11 565.397 268.106 565.401 268.102C567.538 265.684 569.676 263.266 571.813 260.847ZM801.432 14.5498C801.717 14.3573 801.978 14.1768 802.218 14.0082L830.97 49.2939C826.331 51.0382 827.722 51.2445 831.309 49.8488L801.742 13.5639C800.96 14.1263 800.06 14.8426 799.124 15.6953C798.408 17.4941 800.497 15.184 801.432 14.5498ZM809.784 59.2811C807.793 60.0993 788.608 67.9278 791.787 67.5196C793.01 67.4478 803.85 62.3677 804.401 62.1309C805.194 61.8806 802.07 64.2264 807.826 61.5516C807.305 61.4471 810.492 59.0709 809.784 59.2811ZM825.934 51.347C818.588 54.056 818.205 56.5989 823.181 54.0146C825.087 53.0012 827.039 50.9157 825.934 51.347ZM787.252 31.0178C789.038 29.3976 793.612 24.914 796.083 21.1853C792.022 25.4696 787.961 29.754 783.9 34.0386C783.737 34.8175 785.69 32.4344 787.263 31.006C787.26 31.0099 787.256 31.0139 787.252 31.0178ZM834.584 767.289C833.664 763.527 836.885 771.781 836.529 772.015C836.403 773.095 835.081 768.882 834.584 767.289ZM286.72 47.9936C285.349 47.4166 284.61 46.347 281.353 46.099C284.387 47.4462 287.407 48.7796 290.426 50.1024C293.247 49.178 288.202 48.6247 286.72 47.9936ZM275.801 39.9312C276.257 39.9964 274.321 37.1903 279.776 40.0065C283.531 41.9405 261.75 38.0062 258.245 36.0726C262.46 36.5952 271.907 39.357 275.801 39.9312ZM240.952 21.2413C240.758 21.0053 248.875 22.7571 249.764 23.106C254.477 24.9808 242.053 22.5558 240.952 21.2413ZM266.411 27.9225C262.693 26.5804 271.223 28.3025 273.662 29.1276C273.813 29.6078 266.991 28.1309 266.411 27.9225ZM818.42 715.039C815.514 711.592 810.876 711.249 816.712 714.764C816.986 714.931 818.539 715.19 818.42 715.039ZM249.381 20.9338C253.032 22.3031 244.638 20.5237 242.196 19.6338C242.073 19.1599 248.83 20.7327 249.381 20.9338ZM817.398 711.129C812.897 707.052 813.146 710.442 813.722 710.947C816.079 712.952 825.009 718.37 826.811 719.633C814.047 710.115 819.462 713.17 817.398 711.129ZM793.44 698.301C788.537 695.982 800.393 702.971 802.995 703.788C800.574 702.359 794.933 698.985 793.44 698.301ZM764.154 683.716C761.667 682.571 753.762 679.292 752.201 679.186C755.288 680.216 762.948 683.665 764.154 683.716ZM758.67 680.192C754.663 678.044 753.061 679.211 758.094 680.606C758.288 680.66 758.812 680.281 758.67 680.192ZM734.931 671.176C732.284 669.631 728.772 670.226 733.155 671.651C734.48 672.083 735.224 671.35 734.931 671.176ZM812.722 704.559C809.26 701.987 803.878 699.988 811.642 705.025C808.857 703.432 805.964 701.856 802.959 700.299C813.311 707.245 812.921 705.406 816.027 707.512C820.113 710.439 818.965 711.267 817.949 711.031C821.522 712.4 835.525 723.256 842.444 731.061C836.585 723.899 825.799 714.143 818.862 709.133C816.902 707.672 814.559 706.52 812.903 705.39C810.201 703.556 812.912 704.705 812.736 704.569C812.731 704.566 812.727 704.562 812.722 704.559ZM703.248 662.07C694.898 659.2 699.949 662.125 704.767 663.062C704.976 663.093 703.455 662.141 703.248 662.07ZM240.289 11.3983C250.894 15.0695 242.846 14.4482 265.719 18.0136C256.007 17.0832 264.974 18.8513 263.012 18.9471C261.441 19.0216 255.986 17.3174 258.999 18.9608C255.034 17.0376 236.384 12.6025 235.553 12.2024C235.561 12.2044 235.569 12.2064 235.576 12.2085C235.097 11.9881 236.886 10.2092 240.289 11.3983ZM765.691 679.806C763.773 676.928 761.645 679.385 756.837 675.819C748.858 675.182 776.65 683.615 778.722 687.083C750.389 674.278 796.828 697.452 778.101 685.701C794.166 694.454 783.675 687.926 786.392 688.79C789.229 689.668 798.224 694.919 798.1 694.074C798.095 694.071 798.09 694.069 798.085 694.066C792.241 690.933 786.978 688.353 781.004 685.627C785.961 689.663 774.629 683.838 771.085 681.019C769.307 680.608 767.474 680.19 765.691 679.806ZM797.211 696.301C796.65 695.856 784.478 689.876 785.1 690.601C786.621 691.373 803.887 700.448 797.211 696.301ZM846.231 733.97C842.902 729.87 837.283 723.899 834.85 722.519C838.587 725.857 843.982 732.077 846.231 733.97ZM617.359 644.375C611.298 644.04 629.703 646.756 624.46 645.425C624.217 645.356 617.672 644.388 617.359 644.375ZM752.51 675.025C746.837 672.338 748.811 675.057 753.519 676.259C753.787 676.326 752.782 675.153 752.51 675.025ZM249.168 13.3038C249.756 12.7795 265.167 17.0514 267.974 17.6939C266.218 17.9361 248.582 13.968 249.168 13.3038ZM853.398 740.608C848.498 730.205 836.574 721.661 835.521 720.733C834.399 719.658 836.685 720.763 836.435 720.512C835.915 719.689 823.222 709.473 822.592 709.303C822.135 709.018 823.809 711.496 821.03 709.861C826.978 712.459 848.332 733.416 848.983 735.516C849.784 736.514 844.935 728.134 853.387 740.592C853.391 740.597 853.395 740.603 853.398 740.608ZM832.711 717.953C835.496 720.887 827.017 713.71 824.754 711.93C820.078 707.889 832.586 717.543 832.711 717.953ZM811.329 701.761C810.374 700.956 800.575 695.064 799.556 695.116C803.723 698.043 813.694 703.497 811.329 701.761ZM697.384 657.18C694.74 656.585 687.326 654.483 686.778 654.805C689.581 655.362 696.887 657.486 697.384 657.18ZM303.839 20.7228C299.519 19.2737 309.811 21.3018 312.713 22.1499C312.802 22.5802 304.215 20.8543 303.839 20.7228ZM752.842 670.874C751.581 669.942 718.4 659.666 713.746 658.922C718.158 660.145 750.936 670.629 752.107 671.218C752.565 671.334 753.045 670.969 752.842 670.874ZM821.315 705.002C824.416 706.446 825.671 708.319 825.993 708.57C829.504 711.243 836.072 716.674 834.257 715.906C828.967 710.765 815.126 702.148 821.315 705.002ZM695.743 653.869C684.572 651.433 705.805 657.224 703.242 655.965C703.055 655.869 696.822 654.094 695.743 653.869ZM756.629 672.083C759.302 672.132 791.455 686.514 796.224 689.651C791.181 688.028 788.14 685.703 781.704 682.755C780.037 682 780.344 682.563 780.162 682.48C777.35 681.22 779.634 681.773 777.893 680.981C776.866 680.271 753.022 671.325 756.629 672.083ZM823.115 705.767C824.948 706.145 843.327 721.483 843.602 722.564C848.402 727.649 824.755 706.151 823.115 705.767ZM753.853 670.18C758 670.47 773.484 677.474 762.478 673.646C761.428 673.281 757.122 671.12 753.853 670.18ZM697.159 653.149C696.682 652.972 684.993 650.037 684.65 650.341C686.477 650.825 703.269 654.979 697.159 653.149ZM703.583 653.542C703.286 653.478 705.963 654.828 700.321 653.33C699.81 653.202 699.216 652.252 692.284 650.896C690.874 650.622 688.575 650.603 688.726 650.67C695.502 653.315 718.096 656.899 703.583 653.542ZM823.795 705.532C822.987 704.574 825.887 705.524 827.782 707.548C828.615 708.44 826.514 707.487 823.795 705.532ZM659.764 644.857C666.742 645.55 645.275 641.524 644.106 641.55C644.871 642.01 658.83 644.709 659.764 644.857ZM315.388 16.9076C315.383 16.9066 315.378 16.9055 315.373 16.9044C320.822 18.2356 317.292 18.1685 317.545 18.2436C329.005 21.6188 326.178 19.4849 328.072 19.6963C332.134 20.1254 331.157 21.7924 337.987 22.3675C326.71 21.2753 336.878 22.8118 337.066 23.5044C337.817 26.356 322.528 19.358 317.071 18.7502C316.299 18.6687 321.726 20.662 319.737 20.4933C313.283 19.9704 294.345 11.6811 315.388 16.9076ZM829.552 708.81C832.484 709.811 849.171 726.428 844.328 722.462C843.805 721.368 825.724 706.499 829.552 708.81ZM484.795 424.53C481.874 428.445 490.085 420.719 491.197 418.902C491.747 417.999 486.078 422.81 484.795 424.53ZM540.751 368.842C544.629 364.57 547.057 358.514 542.4 363.986C541.906 364.568 540.055 369.096 540.751 368.842ZM279.705 643.383C284.422 639.547 283.097 638.798 280.075 642.028C279.009 643.168 279.556 643.504 279.705 643.383ZM437.449 476.113C437.902 475.711 442.613 470.582 442.179 470.523C440.256 472.25 434.501 478.695 437.449 476.113ZM278.544 644.917C280.803 642.139 275.802 645.879 273.565 649.765C275.026 648.094 278.312 645.203 278.544 644.917ZM742.556 663.141C739.255 662.588 731.088 659.807 726.145 658.455C725.921 657.619 738.835 661.971 742.556 663.141ZM523.23 385.987C526.548 381.612 518.16 389.788 519.468 389.542C519.601 389.462 523.101 386.161 523.23 385.987ZM380.305 624.508C376.354 625.055 388.952 625.358 385.468 624.65C385.301 624.62 380.526 624.476 380.305 624.508ZM435.983 624.121C432.803 623.95 419.882 624.037 424.898 624.457C425.537 624.516 435.776 624.521 435.983 624.121ZM328.54 19.0644C327.164 17.7528 336.263 19.8284 337.519 20.2483C338.024 20.4254 330.356 20.7862 328.54 19.0644ZM306.665 615.029C308.731 612.694 314.424 606.95 315.089 605.623C312.535 608.455 305.34 615.194 306.665 615.029ZM506.132 404.091C510.08 401.272 515.595 395.303 513.322 395.928C507.218 402.509 514.886 395.872 506.132 404.091ZM265.444 660.151C267.21 658.38 267.725 656.239 267.493 656.409C265.275 658.042 263.427 661.665 265.444 660.151ZM393.598 523.195C394.052 523.422 399.394 517.448 398.43 518.012C398.113 518.195 393.231 523.012 393.598 523.195ZM636.799 638.011C633.052 637.018 644.743 638.489 647.966 639.528C649.52 640.445 637.325 638.117 636.799 638.011ZM276.161 628.847C276.387 628.139 263.963 629.392 268.905 629.618C270.083 629.676 276.027 629.084 276.161 628.847ZM397.228 622.785C388.715 623.684 424.593 623.803 415.153 622.93C414.531 622.848 398.025 622.687 397.228 622.785ZM455.637 623.161C454.185 623.056 454.947 620.836 460.896 621.79C461.677 621.914 458.014 622.441 458.651 622.586C458.867 622.654 472.4 623.225 472.981 623.201C473.644 623.158 472.878 622.43 473.551 622.366C474.32 622.292 482.485 623.129 486.684 623.276C494.609 623.549 495.437 623.009 496.145 623.031C498.118 623.102 501.407 623.648 505.342 623.821C524.922 624.607 554.766 626.187 570.625 628.965C556.524 627.168 543.745 626.725 529.619 626.026C533.59 625.018 509.488 625.832 523.559 625.203C517.345 624.873 460.284 623.251 455.653 623.161C455.648 623.161 455.642 623.161 455.637 623.161ZM556.909 352.777C555.105 355.942 567.458 342.597 567.786 340.791C566.035 342.44 557.14 352.391 556.909 352.777ZM500.788 415.162C499.734 416.49 499.846 418.788 493.143 424.645C493.137 424.651 493.132 424.657 493.126 424.663C491.167 426.376 492.9 423.957 492.469 424.203C492.307 424.288 486.155 429.592 490.667 424.628C497.547 417.058 492.23 424.772 495.991 420.822C496.451 420.339 502.888 412.226 502.33 412.527C502.271 412.556 500.276 414.943 499.863 415.259C498.307 416.456 498.576 415.416 498.37 415.598C497.71 416.204 487.139 428.666 484.946 429.865C484.235 430.257 502.222 410.396 503.034 409.725C503.547 409.301 504.409 410.489 504.983 410.089C505.276 409.882 512.286 401.683 513.345 400.757C513.652 400.489 513.895 400.291 514.077 400.149C512.63 401.028 519.359 393.959 519.523 394.522C519.551 394.781 514.851 399.583 514.661 399.734C514.577 399.8 514.5 399.853 514.431 399.906C515.785 399.268 500.137 415.772 504.102 412.758C499.894 417.85 503.878 411.268 500.788 415.162ZM479.654 438.786C480.012 438.189 480.369 437.592 480.727 436.994C473.063 445.629 463.381 454.809 454.248 464.471C451.929 466.922 455.265 464.728 452.043 467.769C449.461 470.205 446.148 472.474 447.333 470.946C447.622 470.572 452.982 465.71 455.422 463.049C462.623 455.192 460.198 456.611 460.611 456.143C461.067 455.628 466.081 451.133 468.58 448.455C474.863 441.721 477.398 438.333 486.509 429.625C481.899 435.257 485.46 433.141 479.654 438.786ZM329.53 623.72C329.959 623.239 337.62 623.3 340.358 623.122C339.954 623.594 332.325 623.519 329.53 623.72ZM657.355 37.5818C655.161 38.7618 671.881 37.1935 667.393 36.9051C666.463 36.8481 659.316 37.4064 657.355 37.5818ZM730.352 26.6525C732.377 25.9464 723.819 27.1762 723.96 27.8486C724.06 28.0674 730.022 26.7715 730.352 26.6525ZM376.532 546.612C376.248 546.949 371.721 551.476 371.554 551.594C368.027 554.099 382.854 539.132 376.532 546.612ZM838.202 59.0877C843.345 52.7973 826.389 70.3506 832.059 65.4445C832.341 65.1993 837.955 59.3904 838.202 59.0877ZM815.009 83.8361C816.322 82.403 822.466 76.3328 822.345 76.0644C822.142 75.6392 815.135 82.6107 815.009 83.8361ZM266.408 663.362C267.685 663.274 259.383 671.092 256.743 674.04C255.466 674.132 263.769 666.31 266.408 663.362ZM316.251 611.628C283.776 646.944 289.683 637.987 317.903 609.26C318.355 609.604 318.301 609.399 316.251 611.628ZM273.946 656.178C274.738 654.531 278.603 650.686 281.166 648.043C280.994 648.789 275.698 654.181 273.946 656.178ZM637.561 37.8298C640.237 36.8252 653.176 36.7644 650.914 37.2986C650.399 37.4522 636.505 38.3968 637.561 37.8298ZM374.328 550.055C375.731 549.837 365.568 560.057 364.669 560.727C361.048 563.427 373.666 551.033 374.328 550.055ZM276.362 624.956C278.934 624.129 286.344 623.985 291.037 623.709C288.943 624.391 280.425 624.693 276.362 624.956ZM242.637 626.888C242.937 626.838 249.499 626.391 249.788 626.401C255.212 626.623 236.647 627.895 242.637 626.888ZM309.409 7.39706C309.624 7.41808 314.307 8.48442 314.461 8.5479C318.489 10.24 304.424 7.03206 309.409 7.39706Z" fill="url(#paint0_linear_35_97)"/>
</g>
<g filter="url(#filter1_f_35_97)">
<path d="M189.948 370.237C222.394 343.012 258.929 324.519 296.203 314.682C240.059 384.908 234.183 480.207 287.342 543.56C349.12 617.185 467.236 619.782 551.161 549.361C555.451 545.761 559.565 542.037 563.508 538.207C555.241 598.486 523.176 658.555 469.599 703.512C364.693 791.538 217.048 788.291 139.825 696.26C62.6018 604.229 85.0425 458.264 189.948 370.237Z" fill="url(#paint1_linear_35_97)"/>
</g>
<g filter="url(#filter2_d_35_97)">
<path d="M809.283 758.951C705.399 681.303 543.872 665.527 426.616 746.02C426.589 746.038 426.562 746.057 426.535 746.075C331.966 815.789 208.01 798.491 96.3203 735.545C83.6886 729.185 70.8806 722.419 58 716.747C68.5129 726.05 78.7674 736.055 89.2773 745.69C173.248 837.259 344.626 889.897 462.465 800.241C462.487 800.226 462.511 800.211 462.533 800.196C557.087 735.909 685.583 726.511 803.171 769.682C815.858 775 829.397 780.179 839 790.249C832.739 777.331 820.572 767.913 809.283 758.951Z" fill="url(#paint2_linear_35_97)"/>
</g>
<defs>
<filter id="filter0_i_35_97" x="166.512" y="0" width="704.082" height="776.189" filterUnits="userSpaceOnUse" color-interpolation-filters="sRGB">
<feFlood flood-opacity="0" result="BackgroundImageFix"/>
<feBlend mode="normal" in="SourceGraphic" in2="BackgroundImageFix" result="shape"/>
<feColorMatrix in="SourceAlpha" type="matrix" values="0 0 0 0 0 0 0 0 0 0 0 0 0 0 0 0 0 0 127 0" result="hardAlpha"/>
<feOffset dy="4"/>
<feGaussianBlur stdDeviation="2"/>
<feComposite in2="hardAlpha" operator="arithmetic" k2="-1" k3="1"/>
<feColorMatrix type="matrix" values="0 0 0 0 0.247059 0 0 0 0 0.662745 0 0 0 0 0.960784 0 0 0 1 0"/>
<feBlend mode="normal" in2="shape" result="effect1_innerShadow_35_97"/>
</filter>
<filter id="filter1_f_35_97" x="89.8945" y="310.682" width="477.613" height="460.783" filterUnits="userSpaceOnUse" color-interpolation-filters="sRGB">
<feFlood flood-opacity="0" result="BackgroundImageFix"/>
<feBlend mode="normal" in="SourceGraphic" in2="BackgroundImageFix" result="shape"/>
<feGaussianBlur stdDeviation="2" result="effect1_foregroundBlur_35_97"/>
</filter>
<filter id="filter2_d_35_97" x="54" y="692.697" width="789" height="161.873" filterUnits="userSpaceOnUse" color-interpolation-filters="sRGB">
<feFlood flood-opacity="0" result="BackgroundImageFix"/>
<feColorMatrix in="SourceAlpha" type="matrix" values="0 0 0 0 0 0 0 0 0 0 0 0 0 0 0 0 0 0 127 0" result="hardAlpha"/>
<feOffset dy="4"/>
<feGaussianBlur stdDeviation="2"/>
<feComposite in2="hardAlpha" operator="out"/>
<feColorMatrix type="matrix" values="0 0 0 0 0.372549 0 0 0 0 0.729412 0 0 0 0 1 0 0 0 1 0"/>
<feBlend mode="normal" in2="BackgroundImageFix" result="effect1_dropShadow_35_97"/>
<feBlend mode="normal" in="SourceGraphic" in2="effect1_dropShadow_35_97" result="shape"/>
</filter>
<linearGradient id="paint0_linear_35_97" x1="540.5" y1="29.6973" x2="540.5" y2="769.697" gradientUnits="userSpaceOnUse">
<stop stop-color="#2F80ED"/>
<stop offset="0.43754" stop-color="#3FA9F5"/>
<stop offset="0.67312" stop-color="#6EC1FF"/>
</linearGradient>
<linearGradient id="paint1_linear_35_97" x1="147.525" y1="376.915" x2="427.175" y2="710.189" gradientUnits="userSpaceOnUse">
<stop stop-color="#FFF1C1"/>
<stop offset="0.9999" stop-color="#FAF2D4"/>
</linearGradient>
<linearGradient id="paint2_linear_35_97" x1="839" y1="769.634" x2="58" y2="769.634" gradientUnits="userSpaceOnUse">
<stop offset="0.187537" stop-color="#6EC1FF"/>
<stop offset="0.591389" stop-color="#4FA1F6"/>
</linearGradient>
</defs>
</svg>
