<svg width="795" height="901" viewBox="0 0 795 901" fill="none" xmlns="http://www.w3.org/2000/svg">
<g filter="url(#filter0_i_41_2)">
<g filter="url(#filter1_d_41_2)">
<path d="M291.344 113.306C292.697 113.395 297.999 114.455 300.302 114.734C297.54 115.57 286.472 112.997 291.344 113.306ZM528.384 38.671C526.633 39.073 524.867 39.47 523.087 39.862C528.166 39.795 535.001 39.145 539.782 39.074C540.559 39.065 538.616 40.074 540.448 39.978C542.277 39.88 541.841 38.73 544.46 38.398C547.246 38.071 561.21 37.623 565.723 37.075C583.273 35.092 600.707 31.856 617.796 29.004C600.192 33.196 618.394 30.758 623.066 29.355C624.14 28.984 623.656 27.118 641.015 23.512C651.752 21.076 642.938 26.852 660.266 20.224C645.887 22.085 659.653 18.498 669.851 14.938C671.538 14.443 685.821 9.55301 691.101 6.87601C692.971 5.99201 695.278 3.61201 697.45 2.43501C698.844 1.67901 700.464 1.52101 702.319 0.381012C702.528 0.252012 702.732 0.125 702.929 0L756.914 66.251C746.037 78.076 735.261 89.657 724.108 101.278C728.54 92.213 718.015 105.948 717.384 106.417C714.111 108.741 726.096 95.593 720.923 100.388C714.274 107.631 707.626 114.874 700.977 122.117C706.753 116.472 695.497 131.618 692.433 133.478C695.379 134.152 660.165 164.651 655.984 170.397C655.115 171.596 662.626 165.455 646.959 181.341C645.261 183.061 645.31 181.855 644.498 182.83C644.012 183.415 642.704 188.479 638.352 191.107C636.762 192.067 643.369 182.596 626.705 201.379C635.395 195.819 603.939 227.741 597.842 233.324C599.217 232.355 600.592 231.386 601.967 230.418C595.726 235.738 595.355 237.403 594.066 238.712C588.875 243.984 581.29 250.815 576.641 255.902C571.2 261.854 572.339 262.956 565.467 269.401C567.246 268.011 569.026 266.62 570.805 265.23C566.308 269.914 561.812 274.599 557.315 279.283C566.053 266.869 555.027 281.583 554.237 282.493C552.981 283.948 554.239 281.346 552.123 283.765C551.909 284.019 552.827 284.221 549.512 287.899C542.582 295.581 542.957 293.693 539.998 296.872C539.73 297.166 541.214 296.647 536.216 302.243C520.332 320.029 535.889 301.775 536.441 301.038C537.164 300.07 529.356 303.96 543.978 289.907C539.082 294.638 537.631 294.217 537.083 294.754C536.6 295.23 528.691 303.964 528.281 304.47C524.659 309.012 528.813 305.919 528.163 306.857C527.629 307.622 517.057 317.168 516.807 321.49C510.302 324.704 517.781 317.051 525.274 308.465C526.026 306.893 517.111 315.679 516.663 316.16C505.646 327.945 513.282 322.858 511.854 326.351C511.102 328.184 505.565 332.005 511.087 328.861C501.23 339.69 506.498 332.459 505.735 333.039C504.586 333.919 501.481 338.03 500.99 338.449C500.27 339.064 502.028 336.228 499.325 338.782C498.879 339.209 495.615 344.343 501.274 339.079C494.12 346.493 495.399 346.528 491.603 347.761C489.422 355.437 486.51 350.048 484.452 351.949C478.983 357.006 482.549 357.39 482.383 357.772C481.19 360.358 466.422 374.706 463.244 378.708C463.109 375.831 474.366 366.785 476.257 364.177C482.563 355.484 465.243 374.442 468.635 367.018C466.939 369.874 465.243 372.731 463.546 375.587C458.265 378.793 463.499 372.132 453.007 384.242C452.27 387.137 460.574 375.819 459.491 378.636C458.852 380.294 452.614 387.172 452.746 387.545C452.929 387.967 458.295 381.497 457.866 382.907C456.917 385.973 435.037 407.413 450.393 389.876C445.971 394.638 441.648 395.179 438.433 399.888C436.356 402.934 453.172 390.592 431.646 412.572C430.238 412.151 439.762 403.326 439.918 403.012C440.135 402.567 436.365 402.249 435.98 402.445C434.648 403.163 414.355 427.188 408.732 431.016C411.78 430.27 392.743 448.558 391.164 451.012C390.747 451.669 393.467 450.301 392.99 450.974C389.992 455.149 379.203 463.936 374.798 468.574C369.868 473.764 371.151 473.722 370.877 474.013C368.688 476.279 369.957 474.021 368.643 475.428C366.659 477.554 352.913 492.067 352.321 492.887C352.15 493.129 355.137 491.454 352.303 494.772C351.813 495.346 351.241 494.156 342.814 503.944C332.664 515.731 351.303 497.107 347.833 502.704C339.674 508.741 341.223 509.747 339.27 511.626C338.591 512.275 332.697 516.314 327.593 521.914C331.125 517.772 334.656 513.629 338.187 509.486C334.338 513.205 327.491 521.016 324.259 524.023C322.683 525.49 322.965 523.33 319.802 526.762C319.136 527.495 318.71 532.479 326.048 522.602C327.522 522.642 323.023 526.4 321.407 528.584C321.164 528.916 321.412 531.351 318.22 533.085C317.449 533.497 319.672 523.24 306.645 542.871C306.226 543.504 308.495 542.064 308.098 542.694C307.825 543.124 303.574 547.269 303.196 547.813C302.813 548.373 305.308 546.783 304.868 547.465C302.619 550.963 296.819 552.891 302.744 546.882C300.554 548.694 298.365 550.508 296.175 552.32C299.843 551.619 293.602 555.978 290.986 558.873C274.222 577.431 286.704 566.179 284.308 569.825C280.453 575.686 281.311 569.258 275.126 577.527C274.555 578.293 284.197 570.323 266.989 587.401C269.386 584.747 271.783 582.093 274.18 579.439C271.218 579.491 265.467 588.968 264.919 589.598C258.634 596.746 262.467 591.525 253.617 602.59C252.826 603.579 250.566 605.227 248.914 607.377C242.063 616.281 259.473 597.047 260.586 597.117C261.124 597.16 241.991 617.461 241.19 618.023C237.764 620.386 249.543 608.521 246.561 610.094C245.481 610.675 218.909 640.262 213.147 645.795C206.494 652.176 201.557 653.232 203.884 655.489C199.786 655.213 199.804 658.371 198.983 659.216C189.045 669.411 189.003 669.408 180.887 678.531C179.095 680.545 176.835 681.548 176.303 682.355C175.996 682.828 177.459 682.776 175.835 684.979C174.876 686.275 171.395 689.873 167.584 693.65L133.761 624.316C141.311 623.917 149.425 623.729 150.437 623.975C152.209 624.396 140.688 625.05 142.825 625.812C151.179 625.188 159.07 624.307 167.28 623.767C170.687 623.547 168.989 624.338 170.458 624.238C171.046 624.195 182.839 622.738 182.392 622.533C180.913 622.018 144.725 625.283 154.171 623.379C156.03 623 162.721 623.982 161.528 622.231C194.143 620.045 227.677 618.362 260.208 617.43C241.837 619.563 219.691 619.524 200.351 620.934C197.656 621.123 188.403 621.582 189.587 622.435C206.544 621.482 227.261 619.765 243.62 619.587C244.138 619.582 242.284 620.509 244.222 620.548C247.896 620.609 259.326 618.754 261.451 619.022C261.734 619.09 255.152 620.473 257.198 621.087C262.409 622.665 263.775 618.625 268.328 618.497C272.02 618.364 295.224 619.554 301.137 618.236C307.291 616.78 283.901 617.924 285.613 616.838C300.952 615.3 318.122 616.111 332.688 615.876C332.948 615.871 330.683 615.057 333.977 614.917C339.98 614.676 341.544 615.856 344.435 616.039C347.575 616.226 358.452 616.097 359.87 616.545C360.053 616.602 357.86 617.756 357.528 617.787C352.816 618.243 351.12 616.727 350.689 616.706C349.063 616.645 347.46 617.225 345.967 617.191C343.508 617.135 342.15 616.599 338.875 616.565C336.612 616.541 338.802 617.562 336.619 617.526C335.699 617.505 327.452 615.214 326.676 617.633C326.122 618.104 396.04 619.55 402.523 619.533C396.658 619.053 390.85 618.606 384.887 618.188C396.833 619.133 411.469 617.755 412.444 620.647C457.35 622.656 502.076 626.506 547.183 633.725C555.268 635.261 550.651 636.315 563.736 638.025C560.506 636.865 557.225 635.718 553.892 634.584C560.532 635.925 590.188 642.404 595.41 643.333C596.041 643.428 597.349 641.987 604.808 643.571C611.282 644.968 612.315 646.519 615.814 647.641C618.792 648.595 622.199 649.159 623.055 649.459C623.712 649.691 623.784 650.493 625.35 651.054C630.3 652.834 626.653 649.609 631.24 653.438C629.96 653.173 628.568 652.881 627.381 652.651C633.621 654.73 641.813 658.336 632.461 656.173C630.839 655.808 632.413 655.495 631.218 655.156C585.228 643.29 621.608 653.783 637.985 657.566C641.648 659.62 664.839 666.702 665.595 667.369C666.563 668.057 662.288 667.404 667.238 670.033C668.334 670.256 698.722 682.575 687.328 679.247C685.02 678.461 670.615 672.246 667.062 671.057C674.459 676.094 694.722 681.367 697.084 682.749C705.699 687.239 679.326 676.574 698.97 686.177C713.613 693.823 700.337 685.331 706.443 687.728C710.061 688.976 725.764 700.235 726.42 698.247C732.081 701.642 728.237 700.539 728.862 701.041C729.665 701.553 740.908 708.664 744.168 712.077C744.55 712.46 742.515 712.282 742.89 712.705C743.594 713.294 753.974 722.173 754.278 722.541C754.58 722.732 752.954 719.793 754.075 720.53C755.398 721.167 764.564 731.336 765.292 732.062C766.345 732.28 754.668 720.156 757.287 721.432C762.796 727.07 771.495 736.701 775.423 741.523C774.497 740.392 769.646 733.595 767.955 731.495C770.178 731.058 780.348 746.468 775.803 741.908C778.468 744.91 777.338 742.356 779.098 744.043C779.618 744.497 782.518 749.864 783.218 750.818C783.388 750.927 781.038 745.021 781.898 745.987C783.828 747.074 791.048 766.309 790.698 768.633C791.508 773.514 786.588 756.607 785.138 756.115C785.178 755.756 788.078 769.808 787.688 770.148C787.138 770.68 786.348 766.999 785.208 763.527C784.088 760.06 782.868 757.217 782.628 758.17C783.668 761.546 784.618 765.394 785.198 769.199C781.328 753.965 768.52 735.133 763.981 732.253C775.647 744.443 783.038 765.191 779.758 766.179C778.598 766.279 775.177 758.847 774.912 759.304C774.485 760.62 779.028 771.426 778.828 772.019C778.828 772.386 778.788 772.56 778.728 772.572C778.398 772.638 777.348 768.538 775.747 764.536C774.291 760.807 772.312 757.008 772.039 756.797C771.032 755.803 771.732 763.055 771.162 763.172C771.082 763.085 769.953 760.57 768.769 758.637C767.658 756.832 766.573 755.519 766.947 757.217C767.819 760.528 770.775 769.197 770.662 769.684C770.938 771.206 764.938 756.684 764.182 756.831C764.015 756.63 766.514 764.39 766.231 764.764C766.096 765.027 763.143 759.546 761.271 758.046C759.924 756.845 761.718 761.445 761.221 760.715C761.135 760.033 754.311 748.868 753.633 748.56C753.298 748.248 753.399 748.78 753.538 749.379C753.697 750.005 753.874 750.679 753.667 750.553C753.035 750.101 750.93 746.855 750.99 747.422C751.281 747.566 757.56 762.479 756.428 762.729C755.464 762.969 749.787 747.928 752.985 763.043C753.031 763.151 754.804 766.076 754.824 766.258C754.796 768.526 749.384 758.998 754.616 771.287C742.887 749.492 752.034 769.244 748.565 766.733C747.451 765.82 742.448 758.393 742.17 758.434C741.901 759.752 744.116 761.696 744.165 762.749C744.324 763.338 738.897 757.296 739.376 759.225C739.809 760.197 744.136 766.956 744.113 767.354C744.916 770.392 742.604 767.353 742.495 768.171C742.478 768.687 744.299 772.813 744.227 772.94C744.257 773.099 740.658 768.188 739.506 767.286C738.744 766.608 740.044 770.052 739.574 769.52C737.105 766.455 733.725 758.012 735.903 766.74C736.013 767.231 737.595 769.801 737.581 769.903C737.677 771.915 734.976 767.217 733.752 766.835C731.845 766.17 736.479 772.174 732.351 767.338C734.199 771.689 735.507 774.031 737.055 778.137C734.93 772.262 730.776 768.38 729.459 767.969C727.921 767.511 729.729 770.534 732.497 776.711C730.79 772.753 729.154 773.988 728.485 772.828C728.259 772.215 725.29 765.059 723.988 770.225C723.879 770.867 726.682 773.947 725.093 773.441C719.521 765.098 724.579 773.694 724.311 773.718C723.269 774.341 720.191 769.559 714.695 763.983C709.449 758.487 702.111 752.641 699.82 751.253C694.273 747.786 688.454 746.611 687.102 745.824C683.161 743.56 686.917 744.598 686.209 743.782C685.614 742.91 672.603 738.212 672.02 737.924C669.783 736.394 672.734 736.538 672.508 736.366C669.739 734.071 652.212 727.542 647.213 725.545C647.19 726.297 656.938 730.181 650.406 728.905C642.721 727.444 643.255 724.221 643.135 724.008C609.389 711.893 572.897 703.901 535.724 698.185C536.164 699.932 560.062 702.655 560.773 703.116C563.567 704.8 523.141 698.072 518.1 697.05C521.91 697.939 525.653 698.843 529.328 699.763C522.823 700.81 508.215 696.246 498.909 696.115C495.822 696.056 501.597 697.489 501.46 697.53C497.977 697.908 492.479 696.706 496.743 696.121C488.191 696.199 489.438 695.226 482.932 694.494C482.605 694.46 485.249 695.527 480.202 695.379C477.884 695.295 465.049 694.18 463.195 694.761C462.465 694.998 468.785 698.669 469.805 696.048C483.559 698.594 474.358 695.213 479.703 695.767C480.603 695.882 478.209 697.102 492.213 697.844C489.199 700.229 473.93 696.708 471.184 696.829C465.682 697.003 488.005 700.442 492.641 698.873C490.44 700.777 494.266 699.325 499.289 699.984C504.763 700.711 502.297 701.064 505.237 701.417C513.263 702.416 510.258 700.53 516.843 702.751C510.821 697.724 528.426 703.737 533.367 705.654C524.921 704.583 516.448 703.635 507.631 702.765C508.076 703.041 508.54 703.319 509.021 703.601C506.746 703.286 504.604 702.996 502.365 702.702C502.747 702.534 503.128 702.367 503.509 702.201C491.846 702.215 488.966 700.425 488.02 700.299C475.855 698.856 461.196 697.633 448.968 696.8C447.07 696.683 448.418 698.088 434.586 696.194C430.133 695.602 434.428 694.771 429.319 694.654C423.081 697.227 423.303 694.936 421.476 694.843C416.224 694.595 412.916 695.182 412.425 695.168C405.803 695.003 396.027 694.558 388.958 694.492C388.824 694.499 392.532 695.483 387.88 695.102C386.439 694.964 370.99 690.819 358.441 691.994C361.792 692.272 365.067 692.56 368.407 692.858C364.656 692.391 336.74 693.312 343.554 694.343C347.799 694.947 357.952 692.541 359.023 694.909C349.874 693.941 298.478 695.678 294.506 695.4C293.963 695.337 297.276 694.484 296.525 694.407C295.966 694.339 284.36 694.859 282.767 694.627C281.837 694.482 286.997 693.848 286.565 693.587C286.228 693.39 271.475 693.572 270.624 694.575C274.289 694.044 284.451 694.035 279.152 695.023C278.472 695.146 274.885 694.656 274.048 694.815C266.337 696.264 289.498 695.156 292.908 695.104C278.721 696.7 256.008 696.156 239.414 697.837C232.564 697.394 249.429 696.104 241.706 695.838C225.603 695.316 237.507 697.16 237.016 697.287C233.084 698.289 219.155 694.782 219.472 698.055C213.762 697.909 215.594 697.377 207.529 698.324C208.61 698.481 209.69 698.639 210.767 698.798C201.996 701.237 182.179 697.865 183.581 697.405C187.478 696.13 197.681 696.944 198.521 696.854C199.765 696.721 203.148 693.127 216.959 695.252C222.453 692.66 195.13 695.139 207.505 692.815C199.024 693.55 164.079 694.618 159.159 696.062C158.563 696.242 161.567 698.216 152.802 697.819C148.632 697.631 158.569 696.765 156.639 696.421C155.14 696.152 148.997 696.431 140.249 697.087L56.504 702.455L114.227 643.744C131.965 625.311 163.765 590.478 171.417 582.206C172.084 581.489 172.343 582.223 172.995 581.516C175 579.344 181.607 570.775 185.452 567.128C177.032 574.26 191.5 558.647 195.301 554.788C201.071 548.933 201.611 550.133 204.225 547.717C214.299 538.403 226.677 520.949 235.907 515.026C233.556 513.624 249.425 502.493 255.336 496.207C259.967 491.284 265.373 482.913 258.354 488.84C266.414 480.402 274.439 471.092 281.797 462.988C283.013 461.648 281.889 464.007 283.945 461.704C284.128 461.491 283.826 460.679 285.578 458.688C300.031 442.246 293.961 451.147 297.111 448.488C298.874 447 300.128 445.857 301.008 444.981C292.406 454.399 282.579 465.351 279.908 468.239C283.451 466.958 298.978 447.37 304.298 442.356C304.483 442.182 304.57 443.471 304.751 443.287C304.754 443.284 304.758 443.28 304.762 443.276C306.682 441.328 318.323 428.372 315.053 430.222C314.176 430.72 308.701 436.574 302.282 443.587C303.886 441.563 301.801 442.245 302.079 441.882C305.458 437.504 315.426 428.358 318.796 424.958C319.565 424.18 319.017 423.775 319.138 423.643C322.223 420.57 322.416 423.194 324.009 418.572C331.152 414.462 314.181 429.603 316.415 429.506C318.132 429.434 352.025 392.249 350.536 391.063C350.803 391.075 351.46 390.742 352.638 389.901C355.253 388.038 364.673 377.675 366.068 375.671C366.296 375.327 364.84 374.187 365.173 373.806C366.006 372.853 378.752 361.34 382.323 355.928C379.777 358.273 377.23 360.617 374.683 362.962C388.912 347.726 386.31 349.705 381.164 354.401C380.923 354.652 380.641 354.851 380.409 355.088C376.434 358.741 371.433 363.514 371.255 363.491C370.58 363.401 394.515 337.36 391.116 343.495C390.639 344.347 378.905 355.779 385.33 350.694C386.455 349.805 393.379 341.892 393.854 341.581C397.03 339.494 382.221 357.065 385.065 355.884C387.986 350.99 393.334 346.205 397.47 341.326C399.353 339.107 399.165 337.955 399.398 337.681C402.883 333.602 401.535 336.46 402.74 335.137C403.383 334.424 409.092 325.303 409.804 328.702C432.047 301.861 414.854 320.246 400.39 335.945C404.241 330.312 413.64 320.996 417.518 316.498C418.908 314.884 417.354 315.158 419.672 312.402C424.444 306.729 449.38 281.663 455.857 275.114C452.239 279.472 454.123 278.97 457.052 275.734C459.981 272.497 456.47 274.233 456.943 273.51C457.454 272.739 471.917 258.229 474.114 255.618C463.948 267.218 467.076 265.382 476.093 255.9C475.017 257.484 473.942 259.068 472.866 260.652C477.801 254.766 489.962 244.063 492.65 240.506C493.07 239.947 490.73 241.18 490.967 240.866C493.354 237.774 503.036 228.716 503.241 228.064C503.418 227.515 499.033 231.141 500.202 229.367C500.446 228.996 505.017 225.822 508.467 221.713C509.748 220.188 508.332 220.503 508.639 220.105C511.203 216.788 510.527 219.529 515.576 213.806C519.274 209.613 521.133 205.651 526.735 200.315C508.157 217.663 523.244 202.583 530.107 194.483C531.207 193.185 529.126 193.234 536.591 186.313C523.793 203.93 541.837 182.784 545.739 178.655C545.958 178.434 546.747 179.026 548.662 177.002C548.822 176.829 548.107 176.624 549.838 174.698C566.263 156.436 556.084 168.415 559.748 165.454C561.308 164.194 568.781 154.832 570.962 152.468C571.465 151.926 571.736 152.645 573.671 150.537C577.093 146.806 579.656 142.993 581.896 140.513C582.16 140.226 582.964 140.956 587.033 136.089C588.178 134.721 589.262 132.998 587.306 134.632C580.826 140.056 571.255 152.891 564.03 159.115C557.443 164.791 576.001 144.821 576.965 143.781C577.318 143.399 574.075 147.656 577.848 143.778C581.068 140.466 585.465 133.018 590.466 128.27C590.846 127.907 595.765 124.977 595.66 125.226C595.552 125.44 590.034 131.845 591.209 131.263C591.347 131.192 595.006 127.265 595.735 126.987C596.626 126.645 601.197 127.752 602.055 126.985C604.25 125.01 602.26 125.77 603.607 124.425C606.494 121.538 617.047 112.029 616.325 110.723C614.666 112.373 613.007 114.023 611.349 115.673C620.129 106.073 615.899 109.71 616.964 108.182C618.109 106.536 618.639 107.796 621.72 104.673C622.391 103.994 634.734 90.416 634.124 90.302C627.801 98.282 629.245 94.481 628.905 94.804C627.617 96.034 626.698 98.283 625.056 100.013C613.498 112.172 624.058 98.884 621.096 101.537C620.079 102.451 618.763 104.939 618.34 105.336C616.967 106.625 616.24 105.987 615.441 106.956C613.574 109.217 616.907 107.657 616.8 107.874C615.64 110.368 607.864 117.123 611.133 111.449C608.126 113.878 609.141 115.442 606.539 117.165C601.37 120.595 607.816 114.242 609.315 112.29C614.692 105.286 616.98 103.856 625.305 94.608C628.304 91.279 631.287 86.803 632.672 85.252C633.544 84.275 644.222 77.334 640.976 73.8C644.598 70.606 652.051 67.253 655.328 63.538C658.269 60.202 656.067 60.078 656.302 59.73C656.661 59.196 660.431 55.361 661.498 53.87C662.747 52.121 661.549 52.456 663.666 49.807C668.935 43.217 670.046 44.558 670.719 44.003C678.524 37.559 673.726 39.09 675.104 37.329C676.258 35.856 692.999 19.055 699.057 12.137L744.245 67.592C743.171 68.288 742.274 68.872 741.631 69.319C742.483 68.689 743.319 68.056 744.139 67.42L699.205 12.275C698.239 13.646 697.273 15.018 696.307 16.389C697.781 15.42 698.976 14.134 699.972 12.992L743.592 66.524C741.084 68.158 739.149 69.472 738.513 68.469C738.911 71.927 727.852 75.309 725.177 76.548C724.042 77.111 724.358 77.553 722.902 78.24C717.177 81.029 704.566 85.475 701.512 86.798C688.689 92.737 723.075 82.12 726.089 80.243C720.593 83.259 690.403 94.966 705.013 91.241C707.301 90.657 710.56 87.912 711.69 87.403C719.974 83.691 713.837 87.509 714.539 87.357C715.79 87.075 720.618 83.74 722.137 83.211C722.624 83.026 720.001 85.511 728.025 81.863C724.254 85.142 702.015 92.899 699.23 93.92C698.233 94.29 705.415 94.607 685.955 98.417C686.235 98.559 686.515 98.701 686.794 98.842C676.175 102.21 666.082 104.991 655.638 107.555C656.679 106.796 662.311 104.406 654.95 106.386C650.66 107.514 654.108 107.858 653.723 107.982C650.015 110.089 583.025 121.079 570.172 121.628C565.911 122.134 553.451 124.131 552.662 124.191C547.162 124.791 527.317 125.442 523.385 125.701C520.907 125.899 523.313 126.723 521.088 126.782C519.015 126.832 521.12 125.834 520.504 125.824C515.536 125.909 477.374 127.892 468.444 126.773C473.809 127.173 501.326 125.026 500.863 124.318C500.726 124.24 493.982 123.695 492.669 124.044C490.425 123.305 482.657 125.773 478.326 125.305C477.873 125.249 479.642 123.928 472.162 123.668C469.597 123.577 462.812 124.575 455.866 123.272C446.013 123.978 393.965 119.504 390.414 120.406C390.307 120.477 397.589 121.504 392.601 121.731C385.943 122.015 392.083 119.844 384.38 119.01C383.183 118.923 362.139 117.303 361.331 117.346C354.708 118.192 373.328 120.59 373.01 120.704C372.372 121.105 356.794 119.877 356.183 119.689C355.585 119.523 368.38 118.848 353.237 118.054C354.932 118.466 356.548 118.868 358.313 119.281C351.196 119.018 350.712 117.586 349.007 117.323C343.759 116.491 337.663 117.887 329.414 114.314C327.277 113.371 331.052 113.078 330.785 112.943C328.239 111.717 324.529 113.709 320.713 111.387C320.417 111.205 330.001 111.375 313.505 109.201C314.622 109.527 315.737 109.851 316.851 110.173C314.46 110.276 297.685 108.165 295.535 107.73C289.055 106.496 294.934 106.114 288.34 105.269C292.345 107.632 272.125 104.698 273.627 103.419C270.641 104.83 253.85 100.551 245.949 99.045C241.031 98.137 230.698 97.007 229.11 96.598C227.189 96.11 228.021 94.987 224.56 94.026C223.493 93.739 213.103 92.641 204.294 89.461C202.586 88.848 199.328 85.973 202.71 86.138C208.505 86.43 218.623 90.229 218.732 88.955C218.859 87.614 204.578 85.527 200.745 84.517C183.115 79.908 193.696 80.696 193.335 80.179C192.321 78.884 182.886 76.839 182.484 76.646C180.931 75.867 187.857 76.55 188.092 75.937C188.401 75.15 179.565 71.624 181.711 71.811C184.8 72.099 192.881 75.167 193.456 75.225C200.725 75.961 191.398 71.962 189.065 70.464C188.337 70.004 191.591 70.224 190.954 69.996C181.218 66.508 188.261 72.204 181.625 70.446C175.687 68.861 183.676 69.354 183.458 69.23C183.185 69.094 176.037 67.406 175.006 66.702C174.542 66.388 193.621 68.11 193.05 66.822C187.135 65.782 181.172 64.698 175.161 63.57C175.026 62.054 183.324 65.036 184.229 65.08C186.064 65.183 181.29 63.359 181.601 62.957C181.783 62.7 187.796 62.982 182.663 61.389C180.897 60.838 176.898 60.984 170.517 58.431C193.731 62.396 178.033 57.961 177.485 57.311C176.942 56.66 188.112 57.972 174.826 55.15C174.885 52.263 175.317 54.35 179.186 54.725C183.906 55.165 173.546 51.892 190.1 56.324C189.457 54.841 175.975 51.885 175.261 51.597C174.664 51.361 177.819 51.421 176.796 50.959C164.665 45.518 173.131 48.683 169.818 46.233C169.423 45.998 157.907 42.631 166.875 44.523C183.61 48.029 190.027 51.311 193.642 48.016C181.994 43.682 166.323 42.639 162.794 41.827C157.167 40.538 163.173 41.143 162.534 40.753C162.314 40.626 157.456 39.521 157.404 39.44C154.627 35.647 179.092 44.599 187.194 45.815C185.171 44.891 183.143 43.962 181.112 43.027C184.011 43.672 186.898 44.306 189.775 44.929C176.252 40.938 189.391 44.499 193.311 42.823C194.195 42.45 185.034 41.394 195.579 42.148C188.129 40.133 190.648 40.177 183.632 39.304C184.108 38.408 199.492 40.71 205.883 41.534C184.559 35.749 196.167 42.049 177.923 35.918C174.176 36.312 183.159 38.142 182.381 38.167C179.651 38.291 173.633 35.72 165.819 36.479C164.537 36.603 169.25 39.061 161.847 37.221C161.03 37.017 156.545 34.791 156.628 34.727C157.466 34.044 162.078 35.496 162.353 35.19C162.617 34.904 157.339 33.836 157.341 33.737C157.439 32.648 161.804 34.396 161.226 33.906C159.979 32.848 141.735 26.007 166.087 32.623C145.449 28.878 163.229 33.198 171.227 34.589C173.318 34.961 173.989 34.455 176.968 34.918C180.799 35.511 185.107 36.811 187.063 37.13C189.158 37.464 177.741 33.341 194.64 37.592C186.428 34.236 170.391 32.181 162.351 29.12C145.849 22.884 174.67 29.424 177.98 29.919C178.809 30.054 176.271 28.567 176.827 28.641C177.765 28.797 194.235 32.96 195.976 32.582C197.749 32.238 189.951 31.277 189.6 30.421C189.407 29.884 209.316 33.333 198.722 30.656C191.447 28.832 177.213 27.643 175.362 24.947C186.508 27.376 197.184 29.586 208.306 31.777C202.345 29.652 196.733 27.566 190.934 25.406C203.052 27.862 213.75 31.109 225.535 32.283C198.166 23.912 234.951 32.069 235.493 31.765C235.589 31.595 225.126 27.297 223.439 26.536C233.105 27.745 263.155 32.941 246.24 27.042C249.288 28.242 257.122 28.168 257.035 28.035C256.327 26.728 239.588 24.341 242.486 23.796C245.872 23.187 249.956 25.674 254.77 26.424C279.686 30.177 273.842 22.935 298.545 27.845C298.082 27.552 297.619 27.258 297.156 26.964C323.888 31.453 351.08 35.209 378.07 38.017C388.578 37.167 417.092 38.066 430.721 38.787C433.359 38.971 447.209 40.45 448.15 40.628C450.05 41.022 439.574 40.821 444.291 41.594C445.254 41.818 468.389 42.679 466.731 41.553C464.179 41.416 455.975 41.807 454.64 41.521C445.56 40.017 516.418 41.235 519.799 39.654C518.213 39.389 516.618 39.119 515.017 38.845C519.545 38.819 524.001 38.76 528.384 38.671ZM311.08 113.103C308.025 113.76 300.946 111.967 296.736 111.648C290.892 111.225 280.248 113.695 285.18 110.326C293.922 111.345 302.204 112.222 311.08 113.103ZM437.86 125.738C431.956 124.952 436.653 122.854 441.429 123.957C441.954 124.079 445.809 126.77 437.86 125.738ZM376.594 120.902C376.843 120.896 381.806 121.374 381.972 121.422C386.365 122.71 371.373 121.256 376.594 120.902ZM675.543 100.343C669.032 102.247 674.363 102.945 678.133 100.978C678.37 100.855 675.969 100.22 675.543 100.343ZM670.87 101.574C665.072 101.241 656.075 107.318 664.006 104.951C664.697 104.75 671.157 101.602 670.87 101.574ZM417.012 123.908C417.716 123.236 423.722 123.885 426.258 124.166C426.165 124.815 419.56 123.969 417.012 123.908ZM571.216 120.614C571.525 120.084 550.094 122.074 548.826 122.841C551.997 122.345 571.141 121.179 571.216 120.614ZM625.72 112.109C625.063 112.142 617.895 113.547 618.166 113.993C621.789 114.044 628.261 112.09 625.72 112.109ZM735.685 78.022C736.108 77.574 728.62 78.289 743.616 72.302C745.858 71.369 738.807 76.34 739.562 76.009C741.275 75.326 742.564 74.712 743.558 74.159C736.924 78.305 730.363 81.514 729.733 81.609C728.095 81.886 729.432 81.12 731.306 80.181C733.271 79.201 735.606 78.093 735.685 78.022ZM666.869 42.779C666.429 44 661.026 49.375 659.688 50.497C659.456 50.687 659.359 48.82 657.09 51.393C655.27 53.461 659.087 51.399 655.262 55.165C651.398 58.972 655.626 53.012 655.252 53.31C654.751 53.711 649.476 60.257 649.069 59.519C648.768 58.971 655.197 52.686 656.622 50.977C658.446 48.789 655.367 50.632 658.77 47.305C660.907 45.215 661.047 47.613 661.542 47.213C661.955 46.875 668.355 38.566 666.854 42.787C666.859 42.785 666.864 42.782 666.869 42.779ZM745.292 73.054C744.833 73.395 744.272 73.762 743.558 74.159C744.146 73.792 744.725 73.421 745.292 73.054ZM327.829 114.506C330.734 115.407 321.832 114.999 318.538 113.852C318.563 113.29 327.377 114.373 327.829 114.506ZM693.643 12.361C687.864 17.944 690.861 13.935 695.304 8.62601L746.925 71.977C746.396 72.333 745.85 72.693 745.292 73.054C745.957 72.559 746.403 72.117 746.758 71.703L695.538 8.84601C695.107 10.005 695.18 10.875 693.643 12.361ZM492.669 124.044C493.044 124.168 493.284 124.367 493.319 124.699C492.332 124.351 492.241 124.157 492.669 124.044ZM513.609 124.079C520.651 122.799 506.258 123.377 506.329 124.077C506.391 124.354 513.338 124.135 513.609 124.079ZM684.035 97.968C683.322 98.068 692.857 92.032 678.37 98.744C686.646 96.692 678.096 99.555 678.33 99.756C678.996 100.415 692.013 95.688 695.302 94.868C697.203 92.806 686.298 97.676 684.052 97.963C684.047 97.965 684.041 97.967 684.035 97.968ZM599.539 113.679C600.127 111.869 604.052 108.054 606.607 105.391C606.019 107.201 602.094 111.017 599.539 113.679ZM383.322 695.255C358.279 695.552 355.242 692.292 378.025 693.907C378.481 693.939 384.833 694.953 383.322 695.255ZM170.457 701.482C168.021 700.237 175.7 699.398 180.727 699.617C181.868 699.665 186.14 700.803 181.403 701.44C181.432 699.695 173.99 699.593 170.457 701.482ZM690.994 16.536C689.981 19.018 684.22 24.181 681.341 27.049C682.46 24.702 688.322 18.955 690.994 16.536ZM301.847 693.697C299.126 693.653 297.51 694.943 297.937 695.035C299.849 695.46 304.934 694.334 301.847 693.697ZM727.808 79.476C727.065 79.279 738.01 73.175 739.543 73.821C737.072 75.155 728.089 79.792 727.808 79.476ZM604.605 108.891C605.899 107.932 600.673 114.28 598.767 115.897C598.459 115.336 603.758 109.52 604.605 108.891ZM259.745 695.537C257.449 695.525 251.664 695.758 251.04 696.293C250.281 696.956 258.745 696.354 259.745 695.537ZM676.945 746.347C676.967 746.589 669.437 744.554 666.236 742.642C660.395 738.997 676.831 745.931 676.945 746.347ZM326.687 692.622C333.962 693.734 325.89 692.666 326.217 693.913C331.008 693.893 343.524 693.894 334.873 692.715C333.238 692.487 328.98 692.677 326.687 692.622ZM319.931 692.291C319.151 692.705 313.851 694.065 318.447 693.901C320.568 693.824 323.954 692.362 319.931 692.291ZM629.767 727.412C624.321 724.305 650.855 734.193 651.192 734.829C651.535 735.076 651.747 735.265 651.858 735.397C652.872 735.414 657.894 737.434 658.048 738.476C656.678 737.8 652.572 736.192 652.169 735.931C651.994 735.815 651.865 735.721 651.781 735.645C650.058 735.611 630.941 727.876 629.767 727.412ZM584.099 713.736C591.521 713.761 592.004 716.766 591.409 716.707C583.649 716.032 589.006 715.202 588.805 715.054C588.329 714.771 582.676 714.45 584.121 713.741C584.114 713.74 584.106 713.738 584.099 713.736ZM620.695 724.066C621.01 724.114 626.5 725.916 626.816 726.074C631.173 728.41 615.272 723.209 620.695 724.066ZM640.353 73.968C636.983 77.168 639.346 73.148 641.72 71.147C641.92 70.987 643.326 71.146 640.353 73.968ZM316.304 692.622C315.253 692.4 288.047 692.326 289.836 693.851C291.866 693.549 322.973 693.709 316.304 692.622ZM129.276 620.498C125.953 624.034 128.505 619.178 130.669 617.657C131.472 617.094 130.113 619.607 129.276 620.498ZM712.518 84.675C707.463 87.522 707.54 84.627 712.565 83.621C712.764 83.58 712.723 84.56 712.518 84.675ZM152.266 701.784C135.594 704.125 139.297 699.132 160.979 698.878C160.325 699.137 159.67 699.397 159.014 699.657C183.704 698.358 160.793 699.817 154.677 700.604C152.366 700.898 154.376 701.499 152.282 701.788C152.277 701.787 152.271 701.786 152.266 701.784ZM146.769 601.924C160.163 592.388 137.595 613.401 131.878 620.136C136.736 612.968 144.493 604.973 133.137 615.091C148.07 598.735 142.722 606.357 143.406 605.785C144.209 605.104 146.197 602.33 146.769 601.924ZM117.749 632.983C117.198 633.708 112.181 638.153 110.395 640.16L43.138 708.569L140.715 702.313C140.789 702.305 140.86 702.296 140.928 702.287C140.862 702.314 140.793 702.341 140.72 702.367L43 708.632L110.355 640.123C112.216 636.64 121.429 628.117 117.749 632.983ZM533.667 705.055C534.356 704.279 535.89 703.847 541.111 705.019C539.42 705.189 535.972 705.027 533.667 705.055ZM306.221 107.787C302.338 107.187 294.791 105.749 296.991 107C297.261 107.125 306.056 108.292 306.221 107.787ZM237.744 694.674C236.943 694.587 216.069 695.715 223.283 696.266C225.493 696.408 244.483 695.268 237.744 694.674ZM344.438 691.77C342.71 691.759 335.58 691.957 335.421 692.168C334.953 692.881 343.693 692.45 344.438 691.77ZM286.904 104.049C286.425 103.897 274.447 102.164 275.747 102.794C278.024 103.985 288.638 104.638 286.904 104.049ZM630.32 87.694C629.678 88.428 628.104 88.72 627.866 88.958C627.316 89.527 615.404 102.798 619.166 96.99C619.793 96.021 637.657 77.607 640.024 75.252C641.858 75.201 633.467 82.356 631.744 84.395C631.441 84.755 632.033 85.721 630.321 87.685C630.321 87.688 630.32 87.691 630.32 87.694ZM561.068 708.79C562.041 708.059 581.487 711.499 581.122 712.518C574.26 711.129 567.874 709.954 561.068 708.79ZM551.034 706.823C546.992 705.52 556.747 707.026 559.716 707.865C559.668 708.412 551.512 706.982 551.034 706.823ZM305.31 689.134C303.212 689.382 309.703 690.454 308.26 690.72C307.344 690.884 302.629 690.534 301.125 690.95C300.703 691.08 305.544 692.105 306.921 692.028C308.883 691.922 306.961 691.066 309.102 691.016C316.201 690.856 322.408 691.404 328.873 691.325C329.458 691.316 324.921 690.729 329.903 690.689C330.672 690.682 335.259 691.578 341.479 691.42C355.149 688.481 364.282 691.375 381.656 690.659C381.066 690.36 368.176 689.414 367.429 689.39C353.701 688.703 327.844 688.739 313.123 689.039C309.274 689.107 311.154 689.69 309.494 689.745C308.177 689.789 309.727 688.611 305.31 689.134ZM308.394 107.451C306.621 106.057 300.163 105.876 296.056 105.208C297.395 106.449 304.241 106.626 308.394 107.451ZM461.174 694.892C459.078 694.768 453.096 693.982 452.574 694.293C451.885 694.687 460.607 695.618 461.174 694.892ZM561.415 160.89C561.302 161.055 557.902 164.601 557.749 164.712C554.082 167.292 564.284 156.66 561.415 160.89ZM480.99 246.554C478.548 249.371 476.242 252.359 474.711 252.64C476.436 251.004 480.817 245.795 480.99 246.554ZM370.277 364.963C371.688 365.23 363.456 372.882 361.93 374.354C362.072 373.413 369.253 364.779 370.277 364.963ZM533.453 701.172C540.104 702.266 538.976 700.239 542.999 701.73C543.642 701.982 545.236 706.101 538.274 703.536C536.998 703.079 542.296 702.973 533.453 701.172ZM164.468 698.632C166.118 697.693 171.47 697.505 175.045 697.295C174.296 697.949 167.044 698.363 164.468 698.632ZM265.784 99.723C262.768 98.089 247.505 96.251 251.112 97.645C251.645 97.85 263.714 99.344 265.784 99.723ZM681.761 31.763C678.238 36.835 687.086 27.78 689.179 24.267C687.985 25.627 682 31.422 681.761 31.763ZM397.356 336.976C397.183 337.215 392.694 341.889 392.464 342.07C388.156 345.313 400.854 332.085 397.356 336.976ZM508.46 219.34C507.401 221.547 496.483 232.352 493.597 234.362C495.074 231.212 509.769 216.598 508.46 219.34ZM506.474 698.03C511.028 698.543 515.729 699.376 519.933 700.268C519.033 700.747 506.725 698.506 506.474 698.03ZM381.164 354.401C380.923 354.652 380.641 354.851 380.409 355.088C380.664 354.853 380.918 354.625 381.164 354.401ZM400.307 689.792C396.324 689.42 397.153 690.581 397.382 690.622C400.237 691.076 404.974 690.224 400.307 689.792ZM303.846 105.117C302.575 103.909 295.55 103.696 291.564 102.846C292.616 103.826 300.649 104.78 303.846 105.117ZM160.086 590.75C164.412 587.747 151.043 603.924 147.507 606.66C146.784 606.43 159.46 591.197 160.086 590.75ZM695.844 18.951C696.511 19.141 699.815 14.975 700.582 13.563L743.156 65.811C742.733 66.21 742.653 66.395 743.151 66.194C743.206 66.172 743.268 66.144 743.339 66.11L700.326 13.324C699.15 14.301 695.333 18.797 695.844 18.951ZM139.97 614.034C138.805 615.638 135.094 618.448 135.846 616.94C136.811 615.004 140.267 613.615 139.97 614.034ZM275.803 689.276C274.965 689.176 263.419 690.45 268.236 691.078C271.576 691.516 272.052 690.341 272.829 690.308C273.732 690.267 292.085 691.062 275.803 689.276ZM240.733 505.548C237.975 508.947 234.108 512.558 231.003 515.91C231.913 514.213 238.984 506.455 240.733 505.548ZM672.831 43.868C673.792 43.315 693.666 22.352 681.729 33.656C681.034 34.316 669.915 45.55 672.831 43.868ZM533.453 701.172C532.594 701.033 531.673 700.856 530.614 700.619C531.673 700.807 532.593 701 533.453 701.172ZM458.59 692.704C460.108 692.232 452.554 691.51 450.278 691.67C449.572 692.329 458.28 692.754 458.59 692.704ZM231.36 516.719C229.805 518.87 226.281 522.117 224.082 524.524C224.064 523.751 230.18 517.175 231.36 516.719ZM358.098 382.11C354.292 385.708 350.005 390.508 350.422 391.033C350.272 391.041 350.018 391.151 349.65 391.383C349.28 391.619 345.679 395.92 343.852 397.542C332.919 407.264 381.704 355.917 355.03 387.175C356.053 385.487 357.075 383.798 358.098 382.11ZM523.786 205.238C526.402 203.622 531.341 196.862 529.635 198.22C528.45 199.168 521.164 206.853 523.786 205.238ZM446.137 288.956C446.848 288.407 451.978 282.095 451.81 281.652C448.297 284.753 442.888 291.45 446.137 288.956ZM540.058 189.224C541.419 187.947 542.092 185.323 541.901 185.444C540.261 186.502 537.392 191.014 540.058 189.224ZM520.528 695.775C517.982 695.041 509.022 694.846 507.233 695.505C506.917 695.299 506.039 694.974 504.396 694.517C504.402 694.518 504.407 694.518 504.412 694.519C502.375 693.481 432.987 687.092 479.312 692.789C480.732 692.979 478.857 692.017 484.636 692.719C485.036 692.768 485.174 693.414 486.403 693.569C489.309 693.9 503.979 695.923 506.845 695.79C506.855 695.909 507.028 696.041 507.411 696.19C510.865 697.505 522.604 696.337 520.528 695.775ZM435.232 300.784C436.518 299.751 439.887 295.824 439.847 295.054C437.897 296.74 432.246 303.18 435.232 300.784ZM675.108 44.771C677.714 42.653 682.85 35.912 680.777 37.463C679.506 38.413 672.104 47.215 675.108 44.771ZM470.381 262.77C456.87 276.254 467.31 266.131 465.909 268.822C467.4 266.805 468.89 264.787 470.381 262.77ZM603.09 713.777C600.352 712.875 604.054 712.163 606.834 713.813C607.704 714.333 604.618 714.279 603.09 713.777ZM712.298 763.932C711.958 761.544 717.886 768.711 714.668 766.827C714.545 766.721 712.365 764.047 712.298 763.932ZM640.327 723.967C638.236 724.264 637.113 723.967 632.025 722.025C639.689 724.313 633.019 721.127 640.327 723.967ZM350.536 391.063C350.485 391.06 350.444 391.061 350.422 391.033C350.473 391.03 350.509 391.041 350.536 391.063ZM552.125 175.953C554.356 174.771 558.884 169.841 556.918 170.732C556.73 170.82 552.35 174.823 552.125 175.953ZM507.233 695.505C507.513 695.687 507.35 695.763 506.845 695.79C506.835 695.678 506.976 695.59 507.233 695.505ZM528.067 202.655C527.782 202.062 520.65 209.338 520.423 209.686C517.207 214.682 525.221 205.752 528.067 202.655ZM712.795 76.92C712.278 77.205 716.396 77.216 718.249 75.721C719.713 74.557 714.749 75.866 712.795 76.92ZM657.434 730.083C660.232 731.233 663.962 732.866 664.322 733.854C662.663 732.971 657.193 730.568 657.434 730.083ZM710.209 760.633C707.493 759.367 702.041 755.065 698.329 752.386C699.038 751.333 708.181 758.995 710.209 760.633ZM528.775 697.373C528.555 697.284 520.92 695.861 521.856 696.782C523.265 698.12 530.858 698.101 528.775 697.373ZM729.556 70.214C733.138 67.8 723.621 70.794 720.218 73.647C718.486 75.183 728.793 70.784 729.556 70.214ZM567.187 161.426C570.118 157.631 561.45 165.723 560.916 167.486C562.466 165.925 566.145 162.773 567.187 161.426ZM456.845 280.603C468.837 271.223 460.11 274.278 458.562 276.484C458.345 276.795 456.554 280.834 456.845 280.603ZM229.093 88.315C226.886 88.223 234.659 90.923 235.826 90.345C236.555 89.989 230.51 88.38 229.093 88.315ZM301.008 444.981C301.436 444.512 301.861 444.047 302.282 443.587C301.991 443.954 301.579 444.412 301.008 444.981ZM599.083 131.931C589.427 137.398 592.054 138.333 591.416 138.995C590.032 140.423 586.22 143.185 583.768 146.022C586.427 142.632 589.085 139.243 591.744 135.854C589.254 138.166 568.244 158.84 568.215 159.658C568.171 160.827 574.326 153.895 574.56 153.744C574.895 153.526 577.44 153.924 578.086 153.351C579.147 152.407 596.001 134.452 599.083 131.931ZM478.064 257.379C476.227 258.972 475.141 258.898 474.521 259.856C474.31 260.183 474.855 260.778 474.115 261.874C475.431 260.376 476.747 258.877 478.064 257.379ZM609.857 116.046C612.623 114.529 603.17 124.089 602.795 124.328C600.738 125.552 607.597 117.286 609.857 116.046ZM532.062 199.429C532.439 199.11 539.713 191.783 539.258 191.471C537.089 193.18 527.575 203.175 532.062 199.429ZM473.052 263.091C470.507 265.675 465.232 270.127 466.655 270.381C466.658 270.377 466.662 270.373 466.666 270.369C468.794 267.943 470.923 265.517 473.052 263.091ZM703.813 17.861C704.112 17.682 704.386 17.514 704.637 17.356L740.26 61.073C735.342 62.716 736.874 63.088 740.681 61.761L704.049 16.805C703.23 17.334 702.297 18.019 701.338 18.851C700.74 20.759 702.831 18.451 703.813 17.861ZM718.324 71.112C716.245 71.893 696.733 79.849 700.033 79.609C701.296 79.602 712.289 74.322 712.86 74.092C713.678 73.856 710.557 76.418 716.429 73.673C715.87 73.504 719.057 70.918 718.324 71.112ZM734.949 63.049C727.243 65.607 727.066 68.616 732.2 65.974C734.17 64.936 736.11 62.637 734.949 63.049ZM689.715 34.406C691.544 32.826 696.189 28.408 698.544 24.571C694.456 28.83 690.367 33.089 686.279 37.348C686.186 38.193 688.114 35.786 689.726 34.394C689.722 34.398 689.719 34.402 689.715 34.406ZM732.188 777.722C732.01 776.237 732.649 777.047 733.205 778.197C733.782 779.388 734.106 780.788 734.023 780.885C733.771 781.246 733.397 780.827 733.028 780.116C732.661 779.396 732.25 778.359 732.188 777.722ZM193.006 55.739C191.642 55.125 190.928 53.938 187.657 53.749C190.672 55.185 193.674 56.607 196.676 58.02C199.54 56.899 194.479 56.411 193.006 55.739ZM182.246 46.954C182.703 47.015 180.835 43.909 186.244 46.924C189.969 48.995 168.158 45.19 164.683 43.126C168.913 43.588 178.343 46.419 182.246 46.954ZM147.707 27.035C147.519 26.777 155.641 28.48 156.526 28.843C161.216 30.795 148.777 28.469 147.707 27.035ZM173.142 33.725C169.44 32.333 177.975 34.002 180.405 34.856C180.543 35.391 173.721 33.941 173.142 33.725ZM728.14 717.61C725.514 713.518 719.931 714.353 726.099 717.717C726.388 717.877 728.243 717.792 728.14 717.61ZM156.205 26.422C159.84 27.839 151.441 26.114 149.008 25.197C148.898 24.671 155.656 26.214 156.205 26.422ZM727.99 712.291C723.571 707.682 722.958 712.511 723.512 713.081C725.79 715.345 735.412 720.429 737.408 721.634C723.973 711.954 730.015 714.592 727.99 712.291ZM702.776 699.941C697.677 697.732 709.652 705.139 712.557 705.591C710.057 704.146 704.328 700.595 702.776 699.941ZM673.072 684.655C670.558 683.442 662.556 679.997 660.883 680.129C664.038 681.125 671.745 684.845 673.072 684.655ZM667.756 680.379C663.788 677.883 661.81 680.005 667.041 681.135C667.243 681.179 667.894 680.487 667.756 680.379ZM643.698 670.932C641.121 668.995 637.271 670.521 641.714 671.981C643.058 672.421 643.981 671.151 643.698 670.932ZM724.056 704.068C720.522 701.254 714.576 699.775 722.613 705.046C719.657 703.485 716.598 701.949 713.435 700.437C723.959 707.921 724.082 705.229 727.305 707.449C731.55 710.54 729.9 712.037 728.701 711.993C732.68 713.008 747.396 724.32 754.923 732.62C748.759 724.827 737.563 714.314 730.369 708.995C728.334 707.442 725.766 706.422 724.052 705.231C721.255 703.297 724.248 704.228 724.071 704.077C724.066 704.074 724.061 704.071 724.056 704.068ZM611.54 661.769C603.185 658.457 608.075 662.33 612.995 663.101C613.21 663.119 611.748 661.851 611.54 661.769ZM147.333 16.053C157.902 19.805 149.821 19.373 172.737 22.618C162.991 21.893 171.963 23.583 169.985 23.755C168.402 23.889 162.961 22.157 165.946 23.901C162.013 21.87 143.365 17.526 142.54 17.109C142.547 17.111 142.555 17.113 142.563 17.115C142.087 16.885 143.943 14.839 147.333 16.053ZM675.586 678.324C674.045 674.303 671.187 678.539 666.608 674.008C657.934 674.685 686.933 681.931 688.611 686.574C659.601 673.41 706.713 698.223 688.22 684.612C704.491 694.145 694.059 686.687 696.956 687.364C699.988 688.044 709.197 693.68 709.277 692.429C709.272 692.427 709.267 692.424 709.261 692.421C703.172 689.215 697.708 686.595 691.529 683.832C696.244 688.814 684.697 682.607 681.346 679.026C679.443 678.784 677.487 678.535 675.586 678.324ZM707.676 695.986C707.097 695.504 694.485 689.499 695.052 690.415C696.547 691.303 714.44 700.484 707.676 695.986ZM759.418 735.385C755.8 730.952 749.894 724.463 747.079 723.259C751.052 726.789 756.718 733.549 759.418 735.385ZM524.863 643.38C518.712 643.338 537.266 646.105 532.023 644.448C531.78 644.364 525.18 643.379 524.863 643.38ZM662.019 673.638C656.338 670.577 657.979 674.411 662.886 675.346C663.166 675.398 662.292 673.783 662.019 673.638ZM156.217 17.888C156.825 17.279 172.211 21.553 175.015 22.185C173.242 22.513 155.608 18.648 156.217 17.888ZM768.049 742.06C763.251 729.967 749.558 721.566 748.49 720.592C747.303 719.429 750.031 720.294 749.772 720.019C749.202 719.101 735.657 708.318 734.996 708.183C734.502 707.903 735.914 710.986 732.875 709.429C739.25 711.782 762.064 734.296 762.93 736.645C763.861 737.72 758.944 728.131 768.036 742.042C768.04 742.048 768.045 742.054 768.049 742.06ZM745.569 717.541C748.376 720.837 739.324 713.263 736.999 711.329C732.17 706.911 745.432 717.067 745.569 717.541ZM723.109 700.35C722.131 699.459 711.92 693.305 710.732 693.614C714.875 696.951 725.508 702.263 723.109 700.35ZM606.053 654.943C603.359 654.384 595.878 652.066 595.269 652.635C598.121 653.155 605.491 655.496 606.053 654.943ZM210.991 24.419C206.692 22.923 216.976 24.877 219.867 25.744C219.944 26.228 211.366 24.555 210.991 24.419ZM663.167 667.153C661.864 666.122 627.807 655.92 623.058 655.3C627.49 656.701 661.034 667.307 662.297 667.827C662.776 667.92 663.372 667.262 663.167 667.153ZM734.571 702.334C738.074 703.567 739.175 705.9 739.514 706.169C743.222 709.038 750.357 714.791 748.184 714.226C742.534 708.599 727.601 699.914 734.571 702.334ZM604.764 649.988C593.36 647.687 614.889 653.862 612.372 652.225C612.187 652.106 605.866 650.199 604.764 649.988ZM667.101 668.282C669.917 668.03 703.12 682.995 708.157 686.269C702.644 685.074 699.665 682.307 692.969 679.301C691.236 678.533 691.463 679.32 691.275 679.235C688.355 677.952 690.829 678.278 689.026 677.463C687.934 676.72 663.229 667.9 667.101 668.282ZM736.629 702.941C738.639 703.12 758.579 719.517 758.917 720.792C763.834 726.532 738.24 703.312 736.629 702.941ZM664.406 665.884C668.888 665.573 684.756 673.127 673.264 669.516C672.171 669.17 667.821 666.708 664.406 665.884ZM606.345 648.67C605.862 648.474 593.978 645.414 593.588 645.92C595.427 646.479 612.526 650.704 606.345 648.67ZM613.06 648.388C612.756 648.329 615.396 650.067 609.649 648.516C609.129 648.383 608.621 646.999 601.512 645.801C600.066 645.56 597.66 645.829 597.81 645.914C604.548 649.233 627.942 651.535 613.06 648.388ZM737.552 702.412C736.789 701.25 740.198 701.828 742.081 704.202C742.909 705.244 740.46 704.478 737.552 702.412ZM568.327 640.23C575.474 640.583 553.675 636.533 552.48 636.647C553.223 637.309 567.371 640.114 568.327 640.23ZM222.699 19.721C222.694 19.72 222.689 19.719 222.684 19.718C228.118 21.044 224.575 21.086 224.827 21.162C236.241 24.608 233.46 22.284 235.356 22.461C239.421 22.815 238.396 24.739 245.234 25.173C233.947 24.296 244.109 25.713 244.279 26.495C244.956 29.71 229.801 22.252 224.338 21.752C223.564 21.685 228.959 23.764 226.967 23.639C220.501 23.251 201.711 14.519 222.699 19.721ZM744.015 705.512C747.301 706.274 765.438 724.593 759.947 720.449C759.267 719.217 739.588 703.376 744.015 705.512ZM397.918 437.889C395.161 441.958 403.506 434.356 404.495 432.425C404.985 431.466 399.129 436.101 397.918 437.889ZM454.205 382.511C458.032 378.191 459.852 371.565 455.311 377.146C454.83 377.74 453.429 382.691 454.205 382.511ZM194.232 658.055C199.182 654.436 197.386 653.248 194.387 656.498C193.328 657.646 194.076 658.169 194.232 658.055ZM351.086 489.953C351.553 489.563 356.211 484.384 355.681 484.237C353.708 485.917 348.051 492.453 351.086 489.953ZM193.146 659.659C195.307 656.789 189.986 660.23 188.099 664.443C189.524 662.74 192.924 659.954 193.146 659.659ZM653.318 657.09C649.815 656.834 641.442 653.927 636.353 652.616C636.233 651.368 649.454 655.971 653.318 657.09ZM436.537 399.518C439.687 394.986 431.218 403.086 432.72 403.021C432.863 402.951 436.415 399.698 436.537 399.518ZM286.366 619.415C282.401 620.204 295.076 620.744 291.562 619.661C291.393 619.616 286.588 619.369 286.366 619.415ZM342.381 618.877C339.179 618.645 326.177 618.82 331.227 619.436C331.87 619.525 342.173 619.488 342.381 618.877ZM235.843 21.729C234.498 20.285 243.571 22.341 244.821 22.779C245.323 22.964 237.619 23.623 235.843 21.729ZM221.09 629.606C223.113 627.23 228.837 621.515 229.365 620.06C226.852 622.93 219.504 629.526 221.09 629.606ZM419.531 417.708C423.7 415.096 429.16 409.076 426.585 409.418C420.535 416.049 428.424 409.619 419.531 417.708ZM180.424 675.247C182.202 673.487 182.355 671.008 182.108 671.163C179.74 672.656 178.278 676.64 180.424 675.247ZM307.597 537.374C308.19 537.73 313.439 531.669 312.39 532.153C312.044 532.309 307.118 537.086 307.597 537.374ZM545.264 631.801C541.489 630.594 553.404 631.818 556.641 633.111C558.159 634.398 545.794 631.931 545.264 631.801ZM181.723 624.03C181.927 623.003 169.467 624.505 174.448 624.965C175.635 625.083 181.596 624.374 181.723 624.03ZM303.37 616.922C294.815 618.263 330.915 618.482 321.411 617.158C320.784 617.043 304.171 616.786 303.37 616.922ZM362.175 617.244C360.712 617.102 361.489 613.728 367.482 615.093C368.268 615.27 364.573 616.122 365.214 616.333C365.431 616.438 379.068 617.104 379.654 617.05C380.323 616.973 379.558 615.878 380.237 615.769C381.013 615.645 389.239 616.765 393.474 616.896C401.467 617.135 402.313 616.279 403.027 616.296C405.018 616.355 408.329 617.107 412.3 617.26C432.053 617.948 462.246 619.115 478.242 622.506C463.996 620.495 451.054 620.399 436.786 619.85C440.829 618.166 416.435 620.256 430.68 618.802C424.379 618.666 366.842 617.448 362.191 617.244C362.186 617.244 362.18 617.244 362.175 617.244ZM470.449 366.526C468.869 369.901 481.102 356.443 481.183 354.406C479.409 356.033 470.654 366.116 470.449 366.526ZM415.189 429.717C414.181 431.086 414.729 433.793 407.846 439.482C407.84 439.488 407.835 439.494 407.829 439.5C405.817 441.163 407.432 438.634 406.966 438.847C406.789 438.918 400.455 444.052 404.906 439.031C411.691 431.372 406.786 439.471 410.529 435.504C410.985 435.018 417.147 426.648 416.542 426.903C416.476 426.928 414.543 429.372 414.112 429.67C412.483 430.8 412.614 429.631 412.403 429.808C411.731 430.402 401.455 443.141 399.07 444.16C398.297 444.493 416.03 424.395 416.871 423.752C417.403 423.346 418.637 424.881 419.244 424.513C419.554 424.321 426.382 415.951 427.468 415.052C427.784 414.791 428.037 414.602 428.226 414.468C426.671 415.246 433.37 408.148 433.663 408.832C433.742 409.139 429.04 413.939 428.842 414.082C428.756 414.146 428.673 414.194 428.601 414.244C430.088 413.73 414.528 430.317 418.681 427.479C414.615 432.703 418.148 425.699 415.189 429.717ZM394.421 453.683C394.736 453.045 395.051 452.408 395.366 451.771C387.849 460.543 378.03 469.595 368.954 479.31C366.649 481.775 370.217 479.797 366.945 482.792C364.325 485.192 360.797 487.261 361.923 485.677C362.197 485.289 367.677 480.539 370.086 477.85C377.198 469.909 374.574 471.141 374.978 470.666C375.426 470.142 380.56 465.76 383.038 463.062C389.265 456.277 391.656 452.753 400.882 444.153C396.439 449.941 400.281 448.088 394.421 453.683ZM235.272 617.631C235.692 616.929 243.402 617.14 246.153 616.913C245.758 617.609 238.08 617.382 235.272 617.631ZM563.045 37.625C560.896 39.003 577.447 37.405 572.986 36.979C572.061 36.891 564.987 37.44 563.045 37.625ZM635.097 26.529C637.074 25.763 628.628 26.874 628.801 27.698C628.912 27.965 634.775 26.655 635.097 26.529ZM291.711 561.894C291.436 562.239 286.885 566.743 286.706 566.851C282.949 569.141 297.833 554.226 291.711 561.894ZM750.626 71.793C755.632 65.374 738.733 82.98 744.504 78.169C744.791 77.928 750.385 72.101 750.626 71.793ZM727.605 96.702C728.904 95.256 735.064 89.201 734.894 88.886C734.612 88.387 727.591 95.346 727.605 96.702ZM182.337 679.346C183.891 679.517 175.425 687.181 172.838 690.178C171.281 690.008 179.751 682.342 182.337 679.346ZM232.078 627.516C200.027 663.228 205.298 653.677 233.585 625.013C234.211 625.519 234.101 625.262 232.078 627.516ZM190.005 672.282C190.61 670.461 194.505 666.644 197.067 664C197.022 664.864 191.713 670.244 190.005 672.282ZM543.424 37.686C546.061 36.496 558.883 36.577 556.653 37.194C556.146 37.365 542.386 38.351 543.424 37.686ZM289.747 565.562C291.4 565.577 281.196 575.759 280.245 576.38C276.414 578.885 289.147 566.597 289.747 565.562ZM181.796 618.346C184.359 617.202 191.814 617.167 196.53 616.866C194.443 617.82 185.878 618.064 181.796 618.346ZM147.907 620.257C148.207 620.193 154.799 619.732 155.091 619.753C160.56 620.234 141.913 621.546 147.907 620.257ZM216.961 9.17001C217.177 9.18601 221.848 10.226 222.001 10.293C225.997 12.065 211.967 8.93201 216.961 9.17001Z" fill="url(#paint0_linear_41_2)"/>
</g>
</g>
<g filter="url(#filter2_d_41_2)">
<path d="M755.283 805.254C651.399 727.606 489.872 711.83 372.616 792.323C372.589 792.341 372.562 792.36 372.535 792.378C277.966 862.092 154.01 844.794 42.3203 781.848C29.6886 775.488 16.8806 768.722 4 763.05C14.5129 772.353 24.7674 782.358 35.2773 791.993C119.248 883.562 290.626 936.2 408.465 846.544C408.487 846.529 408.511 846.514 408.533 846.499C503.087 782.212 631.583 772.814 749.171 815.985C761.858 821.303 775.397 826.482 785 836.552C778.739 823.634 766.572 814.216 755.283 805.254Z" fill="url(#paint1_linear_41_2)"/>
</g>
<g filter="url(#filter3_f_41_2)">
<path d="M100.053 383.555C132.499 356.33 169.034 337.837 206.308 328C150.164 398.226 144.288 493.525 197.447 556.878C259.225 630.503 377.341 633.1 461.266 562.679C465.556 559.079 469.67 555.355 473.613 551.525C465.346 611.804 433.281 671.873 379.704 716.83C274.798 804.856 127.153 801.609 49.9302 709.578C-27.2928 617.547 -4.85205 471.582 100.053 383.555Z" fill="url(#paint2_linear_41_2)"/>
</g>
<defs>
<filter id="filter0_i_41_2" x="43" y="0" width="747.789" height="785.018" filterUnits="userSpaceOnUse" color-interpolation-filters="sRGB">
<feFlood flood-opacity="0" result="BackgroundImageFix"/>
<feBlend mode="normal" in="SourceGraphic" in2="BackgroundImageFix" result="shape"/>
<feColorMatrix in="SourceAlpha" type="matrix" values="0 0 0 0 0 0 0 0 0 0 0 0 0 0 0 0 0 0 127 0" result="hardAlpha"/>
<feOffset dy="4"/>
<feGaussianBlur stdDeviation="2"/>
<feComposite in2="hardAlpha" operator="arithmetic" k2="-1" k3="1"/>
<feColorMatrix type="matrix" values="0 0 0 0 0.247059 0 0 0 0 0.662745 0 0 0 0 0.960784 0 0 0 1 0"/>
<feBlend mode="normal" in2="shape" result="effect1_innerShadow_41_2"/>
</filter>
<filter id="filter1_d_41_2" x="39" y="0" width="755.789" height="789.018" filterUnits="userSpaceOnUse" color-interpolation-filters="sRGB">
<feFlood flood-opacity="0" result="BackgroundImageFix"/>
<feColorMatrix in="SourceAlpha" type="matrix" values="0 0 0 0 0 0 0 0 0 0 0 0 0 0 0 0 0 0 127 0" result="hardAlpha"/>
<feOffset dy="4"/>
<feGaussianBlur stdDeviation="2"/>
<feComposite in2="hardAlpha" operator="out"/>
<feColorMatrix type="matrix" values="0 0 0 0 0.478431 0 0 0 0 0.670588 0 0 0 0 0.478431 0 0 0 1 0"/>
<feBlend mode="normal" in2="BackgroundImageFix" result="effect1_dropShadow_41_2"/>
<feBlend mode="normal" in="SourceGraphic" in2="effect1_dropShadow_41_2" result="shape"/>
</filter>
<filter id="filter2_d_41_2" x="0" y="739" width="789" height="161.873" filterUnits="userSpaceOnUse" color-interpolation-filters="sRGB">
<feFlood flood-opacity="0" result="BackgroundImageFix"/>
<feColorMatrix in="SourceAlpha" type="matrix" values="0 0 0 0 0 0 0 0 0 0 0 0 0 0 0 0 0 0 127 0" result="hardAlpha"/>
<feOffset dy="4"/>
<feGaussianBlur stdDeviation="2"/>
<feComposite in2="hardAlpha" operator="out"/>
<feColorMatrix type="matrix" values="0 0 0 0 0.478431 0 0 0 0 0.670588 0 0 0 0 0.478431 0 0 0 1 0"/>
<feBlend mode="normal" in2="BackgroundImageFix" result="effect1_dropShadow_41_2"/>
<feBlend mode="normal" in="SourceGraphic" in2="effect1_dropShadow_41_2" result="shape"/>
</filter>
<filter id="filter3_f_41_2" x="0" y="324" width="477.613" height="460.783" filterUnits="userSpaceOnUse" color-interpolation-filters="sRGB">
<feFlood flood-opacity="0" result="BackgroundImageFix"/>
<feBlend mode="normal" in="SourceGraphic" in2="BackgroundImageFix" result="shape"/>
<feGaussianBlur stdDeviation="2" result="effect1_foregroundBlur_41_2"/>
</filter>
<linearGradient id="paint0_linear_41_2" x1="446.928" y1="36.794" x2="446.928" y2="776.794" gradientUnits="userSpaceOnUse">
<stop stop-color="#7AAB7A"/>
<stop offset="0.240422" stop-color="#4CAB4C"/>
<stop offset="0.360616" stop-color="#7AAB7A"/>
</linearGradient>
<linearGradient id="paint1_linear_41_2" x1="785" y1="815.937" x2="4" y2="815.937" gradientUnits="userSpaceOnUse">
<stop offset="0.187537" stop-color="#7AAB7A"/>
<stop offset="0.389463" stop-color="#4CAB4C"/>
</linearGradient>
<linearGradient id="paint2_linear_41_2" x1="57.6302" y1="390.233" x2="337.28" y2="723.507" gradientUnits="userSpaceOnUse">
<stop stop-color="#FFF1C1"/>
<stop offset="0.9999" stop-color="#FAF2D4"/>
</linearGradient>
</defs>
</svg>
